<?xml version="1.0" encoding="utf-8" standalone="no"?>
<!DOCTYPE svg PUBLIC "-//W3C//DTD SVG 1.1//EN"
  "http://www.w3.org/Graphics/SVG/1.1/DTD/svg11.dtd">
<!-- Created with matplotlib (http://matplotlib.sourceforge.net/) -->
<svg height="432pt" version="1.1" viewBox="0 0 576 432" width="576pt" xmlns="http://www.w3.org/2000/svg" xmlns:xlink="http://www.w3.org/1999/xlink">
 <defs>
  <style type="text/css">
*{stroke-linecap:square;stroke-linejoin:round;}
  </style>
 </defs>
 <g id="figure_1">
  <g id="patch_1">
   <path d="
M0 432
L576 432
L576 0
L0 0
z
" style="fill:#ffffff;"/>
  </g>
  <g id="axes_1">
   <g id="patch_2">
    <path d="
M72 388.8
L518.4 388.8
L518.4 43.2
L72 43.2
z
" style="fill:#ffffff;"/>
   </g>
   <g id="line2d_1">
    <path clip-path="url(#p7ff5b81e1d)" d="
M75.72 88.3901
L79.44 122.074
L83.16 142.146
L86.88 156.461
L90.6 167.588
L94.32 176.69
L98.04 184.39
L101.76 191.062
L105.48 196.95
L109.2 202.217
L112.92 206.982
L116.64 211.334
L120.36 215.336
L124.08 219.043
L127.8 222.494
L131.52 225.722
L135.24 228.754
L138.96 231.613
L142.68 234.317
L146.4 236.883
L150.12 239.324
L153.84 241.651
L157.56 243.875
L161.28 246.004
L165 248.046
L168.72 250.008
L172.44 251.896
L176.16 253.715
L179.88 255.471
L183.6 257.167
L187.32 258.807
L191.04 260.395
L194.76 261.935
L198.48 263.428
L202.2 264.878
L205.92 266.288
L209.64 267.658
L213.36 268.993
L217.08 270.292
L220.8 271.559
L224.52 272.794
L228.24 274
L231.96 275.177
L235.68 276.327
L239.4 277.451
L243.12 278.551
L246.84 279.627
L250.56 280.68
L254.28 281.712
L258 282.722
L261.72 283.713
L265.44 284.685
L269.16 285.638
L272.88 286.573
L276.6 287.491
L280.32 288.392
L284.04 289.278
L287.76 290.148
L291.48 291.003
L295.2 291.844
L298.92 292.671
L302.64 293.484
L306.36 294.285
L310.08 295.073
L313.8 295.848
L317.52 296.612
L321.24 297.365
L324.96 298.106
L328.68 298.836
L332.4 299.556
L336.12 300.266
L339.84 300.965
L343.56 301.656
L347.28 302.336
L351 303.008
L354.72 303.67
L358.44 304.324
L362.16 304.97
L365.88 305.607
L369.6 306.237
L373.32 306.858
L377.04 307.472
L380.76 308.078
L384.48 308.677
L388.2 309.27
L391.92 309.855
L395.64 310.433
L399.36 311.005
L403.08 311.57
L406.8 312.129
L410.52 312.682
L414.24 313.229
L417.96 313.77
L421.68 314.305
L425.4 314.834
L429.12 315.358
L432.84 315.877
L436.56 316.39
L440.28 316.898
L444 317.4
L447.72 317.898
L451.44 318.391
L455.16 318.879
L458.88 319.363
L462.6 319.842
L466.32 320.316
L470.04 320.786
L473.76 321.251
L477.48 321.712
L481.2 322.169
L484.92 322.622
L488.64 323.07
L492.36 323.515
L496.08 323.956
L499.8 324.393
L503.52 324.826
L507.24 325.256
L510.96 325.681
L514.68 326.103
L518.4 326.522
L522.12 326.937" style="fill:none;stroke:#0000ff;stroke-width:3;"/>
   </g>
   <g id="matplotlib.axis_1">
    <g id="xtick_1">
     <g id="line2d_2">
      <path clip-path="url(#p7ff5b81e1d)" d="
M72 388.8
L72 43.2" style="fill:none;stroke:#000000;stroke-dasharray:1.000000,3.000000;stroke-dashoffset:0.0;stroke-linecap:butt;stroke-width:0.5;"/>
     </g>
     <g id="line2d_3">
      <defs>
       <path d="
M0 0
L0 -4" id="m0012dd4eef" style="stroke:#000000;stroke-linecap:butt;stroke-width:0.5;"/>
      </defs>
      <g>
       <use style="stroke:#000000;stroke-linecap:butt;stroke-width:0.5;" x="72.0" xlink:href="#m0012dd4eef" y="388.8"/>
      </g>
     </g>
     <g id="line2d_4">
      <defs>
       <path d="
M0 0
L0 4" id="m476344969c" style="stroke:#000000;stroke-linecap:butt;stroke-width:0.5;"/>
      </defs>
      <g>
       <use style="stroke:#000000;stroke-linecap:butt;stroke-width:0.5;" x="72.0" xlink:href="#m476344969c" y="43.2"/>
      </g>
     </g>
     <g id="text_1">
      <!-- $0$ -->
      <defs>
       <path d="
M42 31.6406
C42 37.75 41.9062 48.125 37.7031 56.1094
C34 63.1094 28.0938 65.5938 22.9062 65.5938
C18.0938 65.5938 12 63.4062 8.20312 56.2031
C4.20312 48.7188 3.79688 39.4375 3.79688 31.6406
C3.79688 25.9531 3.90625 17.2812 7 9.67188
C11.2969 -0.609375 19 -2 22.9062 -2
C27.5 -2 34.5 -0.109375 38.5938 9.375
C41.5938 16.2812 42 24.3594 42 31.6406
M22.9062 -0.40625
C16.5 -0.40625 12.7031 5.07812 11.2969 12.6875
C10.2031 18.5625 10.2031 27.1562 10.2031 32.75
C10.2031 40.4375 10.2031 46.8281 11.5 52.9219
C13.4062 61.3906 19 64 22.9062 64
C27 64 32.2969 61.2969 34.2031 53.125
C35.5 47.4375 35.5938 40.7344 35.5938 32.75
C35.5938 26.25 35.5938 18.2656 34.4062 12.375
C32.2969 1.48438 26.4062 -0.40625 22.9062 -0.40625" id="CMR17-48"/>
      </defs>
      <g transform="translate(69.0735048743 400.504430529)scale(0.12 -0.12)">
       <use transform="scale(0.996264009963)" xlink:href="#CMR17-48"/>
      </g>
     </g>
    </g>
    <g id="xtick_2">
     <g id="line2d_5">
      <path clip-path="url(#p7ff5b81e1d)" d="
M146.4 388.8
L146.4 43.2" style="fill:none;stroke:#000000;stroke-dasharray:1.000000,3.000000;stroke-dashoffset:0.0;stroke-linecap:butt;stroke-width:0.5;"/>
     </g>
     <g id="line2d_6">
      <g>
       <use style="stroke:#000000;stroke-linecap:butt;stroke-width:0.5;" x="146.4" xlink:href="#m0012dd4eef" y="388.8"/>
      </g>
     </g>
     <g id="line2d_7">
      <g>
       <use style="stroke:#000000;stroke-linecap:butt;stroke-width:0.5;" x="146.4" xlink:href="#m476344969c" y="43.2"/>
      </g>
     </g>
     <g id="text_2">
      <!-- $20$ -->
      <defs>
       <path d="
M41.7031 15.4531
L39.9062 15.4531
C38.9062 8.375 38.0938 7.17188 37.7031 6.5625
C37.2031 5.76562 30 5.76562 28.5938 5.76562
L9.40625 5.76562
C13 9.67188 20 16.75 28.5 24.9531
C34.5938 30.7344 41.7031 37.5312 41.7031 47.4219
C41.7031 59.2188 32.2969 66 21.7969 66
C10.7969 66 4.09375 56.3125 4.09375 47.3438
C4.09375 43.4375 7 42.9375 8.20312 42.9375
C9.20312 42.9375 12.2031 43.5469 12.2031 47.0312
C12.2031 50.1094 9.59375 51 8.20312 51
C7.59375 51 7 50.9062 6.59375 50.7031
C8.5 59.2188 14.2969 63.4062 20.4062 63.4062
C29.0938 63.4062 34.7969 56.5156 34.7969 47.4219
C34.7969 38.7344 29.7031 31.25 24 24.75
L4.09375 2.28125
L4.09375 0
L39.2969 0
z
" id="CMR17-50"/>
      </defs>
      <g transform="translate(140.547009749 400.504430529)scale(0.12 -0.12)">
       <use transform="scale(0.996264009963)" xlink:href="#CMR17-50"/>
       <use transform="translate(45.6904771171 0.0)scale(0.996264009963)" xlink:href="#CMR17-48"/>
      </g>
     </g>
    </g>
    <g id="xtick_3">
     <g id="line2d_8">
      <path clip-path="url(#p7ff5b81e1d)" d="
M220.8 388.8
L220.8 43.2" style="fill:none;stroke:#000000;stroke-dasharray:1.000000,3.000000;stroke-dashoffset:0.0;stroke-linecap:butt;stroke-width:0.5;"/>
     </g>
     <g id="line2d_9">
      <g>
       <use style="stroke:#000000;stroke-linecap:butt;stroke-width:0.5;" x="220.8" xlink:href="#m0012dd4eef" y="388.8"/>
      </g>
     </g>
     <g id="line2d_10">
      <g>
       <use style="stroke:#000000;stroke-linecap:butt;stroke-width:0.5;" x="220.8" xlink:href="#m476344969c" y="43.2"/>
      </g>
     </g>
     <g id="text_3">
      <!-- $40$ -->
      <defs>
       <path d="
M33.5938 64.3281
C33.5938 66.4062 33.5 66.5 31.7031 66.5
L2 19.5938
L2 17
L27.7969 17
L27.7969 7.14062
C27.7969 3.5 27.5938 2.5 20.5938 2.5
L18.7031 2.5
L18.7031 0
C21.9062 0 27.2969 0 30.7031 0
C34.0938 0 39.5 0 42.7031 0
L42.7031 2.5
L40.7969 2.5
C33.7969 2.5 33.5938 3.5 33.5938 7.14062
L33.5938 17
L43.7969 17
L43.7969 19.5938
L33.5938 19.5938
z

M28.0938 57.7656
L28.0938 19.5938
L4 19.5938
z
" id="CMR17-52"/>
      </defs>
      <g transform="translate(214.947009749 400.504430529)scale(0.12 -0.12)">
       <use transform="scale(0.996264009963)" xlink:href="#CMR17-52"/>
       <use transform="translate(45.6904771171 0.0)scale(0.996264009963)" xlink:href="#CMR17-48"/>
      </g>
     </g>
    </g>
    <g id="xtick_4">
     <g id="line2d_11">
      <path clip-path="url(#p7ff5b81e1d)" d="
M295.2 388.8
L295.2 43.2" style="fill:none;stroke:#000000;stroke-dasharray:1.000000,3.000000;stroke-dashoffset:0.0;stroke-linecap:butt;stroke-width:0.5;"/>
     </g>
     <g id="line2d_12">
      <g>
       <use style="stroke:#000000;stroke-linecap:butt;stroke-width:0.5;" x="295.2" xlink:href="#m0012dd4eef" y="388.8"/>
      </g>
     </g>
     <g id="line2d_13">
      <g>
       <use style="stroke:#000000;stroke-linecap:butt;stroke-width:0.5;" x="295.2" xlink:href="#m476344969c" y="43.2"/>
      </g>
     </g>
     <g id="text_4">
      <!-- $60$ -->
      <defs>
       <path d="
M10.5938 34
C10.5938 57.6562 21.7969 63 28.2969 63
C30.4062 63 35.5 62.6406 37.5 59
C35.9062 59 32.9062 59 32.9062 55.5156
C32.9062 52.8281 35.0938 51.9219 36.5 51.9219
C37.4062 51.9219 40.0938 52.3125 40.0938 55.625
C40.0938 61.7812 35.0938 65.2969 28.2031 65.2969
C16.2969 65.2969 3.79688 52.9688 3.79688 31
C3.79688 3.95312 15.0938 -2 23.0938 -2
C32.7969 -2 42 6.67188 42 20.0469
C42 32.5156 33.9062 41.5938 23.7031 41.5938
C17.5938 41.5938 13.0938 37.6094 10.5938 30.625
z

M23.0938 0.390625
C10.7969 0.390625 10.7969 18.75 10.7969 22.4375
C10.7969 29.625 14.2031 40 23.5 40
C25.2031 40 30.0938 40 33.4062 33.125
C35.2031 29.2188 35.2031 25.1406 35.2031 20.1406
C35.2031 14.75 35.2031 10.7812 33.0938 6.78125
C30.9062 2.67188 27.7031 0.390625 23.0938 0.390625" id="CMR17-54"/>
      </defs>
      <g transform="translate(289.347009749 400.504430529)scale(0.12 -0.12)">
       <use transform="scale(0.996264009963)" xlink:href="#CMR17-54"/>
       <use transform="translate(45.6904771171 0.0)scale(0.996264009963)" xlink:href="#CMR17-48"/>
      </g>
     </g>
    </g>
    <g id="xtick_5">
     <g id="line2d_14">
      <path clip-path="url(#p7ff5b81e1d)" d="
M369.6 388.8
L369.6 43.2" style="fill:none;stroke:#000000;stroke-dasharray:1.000000,3.000000;stroke-dashoffset:0.0;stroke-linecap:butt;stroke-width:0.5;"/>
     </g>
     <g id="line2d_15">
      <g>
       <use style="stroke:#000000;stroke-linecap:butt;stroke-width:0.5;" x="369.6" xlink:href="#m0012dd4eef" y="388.8"/>
      </g>
     </g>
     <g id="line2d_16">
      <g>
       <use style="stroke:#000000;stroke-linecap:butt;stroke-width:0.5;" x="369.6" xlink:href="#m476344969c" y="43.2"/>
      </g>
     </g>
     <g id="text_5">
      <!-- $80$ -->
      <defs>
       <path d="
M27.2031 35.375
C33.5 38.5625 39.9062 43.3281 39.9062 50.9844
C39.9062 60.0312 31.0938 65.2969 23 65.2969
C13.9062 65.2969 5.90625 58.7344 5.90625 49.6875
C5.90625 47.2031 6.5 42.9219 10.4062 39.1406
C11.4062 38.1562 15.5938 35.1719 18.2969 33.2812
C13.7969 30.9844 3.29688 25.5312 3.29688 14.5938
C3.29688 4.35938 13.0938 -2 22.7969 -2
C33.5 -2 42.5 5.65625 42.5 15.7969
C42.5 24.8438 36.4062 29.0312 32.4062 31.7031
z

M14.0938 44.125
C13.2969 44.625 9.29688 47.7031 9.29688 52.375
C9.29688 58.4375 15.5938 63 22.7969 63
C30.7031 63 36.5 57.4531 36.5 50.9844
C36.5 41.7344 26.0938 36.4688 25.5938 36.4688
C25.5 36.4688 25.4062 36.4688 24.5938 37.0781
z

M32.5 23.7344
C34 22.6406 38.7969 19.375 38.7969 13.2969
C38.7969 5.95312 31.4062 0.390625 23 0.390625
C13.9062 0.390625 7 6.84375 7 14.6875
C7 22.5469 13.0938 29.0938 20 32.1875
z
" id="CMR17-56"/>
      </defs>
      <g transform="translate(363.747009749 400.504430529)scale(0.12 -0.12)">
       <use transform="scale(0.996264009963)" xlink:href="#CMR17-56"/>
       <use transform="translate(45.6904771171 0.0)scale(0.996264009963)" xlink:href="#CMR17-48"/>
      </g>
     </g>
    </g>
    <g id="xtick_6">
     <g id="line2d_17">
      <path clip-path="url(#p7ff5b81e1d)" d="
M444 388.8
L444 43.2" style="fill:none;stroke:#000000;stroke-dasharray:1.000000,3.000000;stroke-dashoffset:0.0;stroke-linecap:butt;stroke-width:0.5;"/>
     </g>
     <g id="line2d_18">
      <g>
       <use style="stroke:#000000;stroke-linecap:butt;stroke-width:0.5;" x="444.0" xlink:href="#m0012dd4eef" y="388.8"/>
      </g>
     </g>
     <g id="line2d_19">
      <g>
       <use style="stroke:#000000;stroke-linecap:butt;stroke-width:0.5;" x="444.0" xlink:href="#m476344969c" y="43.2"/>
      </g>
     </g>
     <g id="text_6">
      <!-- $100$ -->
      <defs>
       <path d="
M26.5938 63.3125
C26.5938 65.4062 26.5 65.5 25.0938 65.5
C21.2031 61.1875 15.2969 59.7969 9.70312 59.7969
C9.40625 59.7969 8.90625 59.7969 8.79688 59.5
C8.70312 59.2969 8.70312 59.0938 8.70312 57
C11.7969 57 17 57.5938 21 59.9844
L21 7.20312
C21 3.6875 20.7969 2.5 12.2031 2.5
L9.20312 2.5
L9.20312 0
C14 0 19 0 23.7969 0
C28.5938 0 33.5938 0 38.4062 0
L38.4062 2.5
L35.4062 2.5
C26.7969 2.5 26.5938 3.59375 26.5938 7.15625
z
" id="CMR17-49"/>
      </defs>
      <g transform="translate(435.220514623 400.504430529)scale(0.12 -0.12)">
       <use transform="scale(0.996264009963)" xlink:href="#CMR17-49"/>
       <use transform="translate(45.6904771171 0.0)scale(0.996264009963)" xlink:href="#CMR17-48"/>
       <use transform="translate(91.3809542341 0.0)scale(0.996264009963)" xlink:href="#CMR17-48"/>
      </g>
     </g>
    </g>
    <g id="xtick_7">
     <g id="line2d_20">
      <path clip-path="url(#p7ff5b81e1d)" d="
M518.4 388.8
L518.4 43.2" style="fill:none;stroke:#000000;stroke-dasharray:1.000000,3.000000;stroke-dashoffset:0.0;stroke-linecap:butt;stroke-width:0.5;"/>
     </g>
     <g id="line2d_21">
      <g>
       <use style="stroke:#000000;stroke-linecap:butt;stroke-width:0.5;" x="518.4" xlink:href="#m0012dd4eef" y="388.8"/>
      </g>
     </g>
     <g id="line2d_22">
      <g>
       <use style="stroke:#000000;stroke-linecap:butt;stroke-width:0.5;" x="518.4" xlink:href="#m476344969c" y="43.2"/>
      </g>
     </g>
     <g id="text_7">
      <!-- $120$ -->
      <g transform="translate(509.620514623 400.504430529)scale(0.12 -0.12)">
       <use transform="scale(0.996264009963)" xlink:href="#CMR17-49"/>
       <use transform="translate(45.6904771171 0.0)scale(0.996264009963)" xlink:href="#CMR17-50"/>
       <use transform="translate(91.3809542341 0.0)scale(0.996264009963)" xlink:href="#CMR17-48"/>
      </g>
     </g>
    </g>
    <g id="text_8">
     <!-- $n$ -->
     <defs>
      <path d="
M20.5938 29.2344
C20.7969 29.8438 23.2969 34.8281 27 38.0156
C29.5938 40.4062 33 42.0156 36.9062 42.0156
C40.9062 42.0156 42.2969 39.0156 42.2969 35.0312
C42.2969 29.3438 38.2031 17.9688 36.2031 12.5781
C35.2969 10.1719 34.7969 8.875 34.7969 7.07812
C34.7969 2.59375 37.9062 -1 42.7031 -1
C52 -1 55.5 13.6719 55.5 14.2656
C55.5 14.7656 55.0938 15.1719 54.5 15.1719
C53.5938 15.1719 53.5 14.875 53 13.1719
C50.7031 4.98438 46.9062 1 43 1
C42 1 40.4062 1 40.4062 4.20312
C40.4062 6.70312 41.5 9.70312 42.0938 11.0938
C44.0938 16.6094 48.2969 27.8125 48.2969 33.5156
C48.2969 39.5 44.7969 44 37.2031 44
C28.2969 44 23.5938 37.7344 21.7969 35.2344
C21.5 40.9062 17.4062 44 13 44
C9.79688 44 7.59375 42.1094 5.90625 38.7188
C4.09375 35.125 2.70312 29.1406 2.70312 28.7344
C2.70312 28.3438 3.09375 27.8438 3.79688 27.8438
C4.59375 27.8438 4.70312 27.9375 5.29688 30.2344
C6.90625 36.3281 8.70312 42.0156 12.7031 42.0156
C15 42.0156 15.7969 40.4062 15.7969 37.4219
C15.7969 35.2188 14.7969 31.3281 14.0938 28.2344
L11.2969 17.4688
C10.9062 15.5625 9.79688 11.0781 9.29688 9.28125
C8.59375 6.6875 7.5 2 7.5 1.5
C7.5 0.09375 8.59375 -1 10.0938 -1
C11.2969 -1 12.7031 -0.40625 13.5 1.09375
C13.7031 1.59375 14.5938 5.09375 15.0938 7.07812
L17.2969 16.0625
z
" id="CMMI12-110"/>
     </defs>
     <g transform="translate(289.959299538 413.225476606)scale(0.18 -0.18)">
      <use transform="scale(0.996264009963)" xlink:href="#CMMI12-110"/>
     </g>
    </g>
   </g>
   <g id="matplotlib.axis_2">
    <g id="ytick_1">
     <g id="line2d_23">
      <path clip-path="url(#p7ff5b81e1d)" d="
M72 354.121
L518.4 354.121" style="fill:none;stroke:#000000;stroke-dasharray:1.000000,3.000000;stroke-dashoffset:0.0;stroke-linecap:butt;stroke-width:0.5;"/>
     </g>
     <g id="line2d_24">
      <defs>
       <path d="
M0 0
L4 0" id="me8a85f7bf6" style="stroke:#000000;stroke-linecap:butt;stroke-width:0.5;"/>
      </defs>
      <g>
       <use style="stroke:#000000;stroke-linecap:butt;stroke-width:0.5;" x="72.0" xlink:href="#me8a85f7bf6" y="354.1213445"/>
      </g>
     </g>
     <g id="line2d_25">
      <defs>
       <path d="
M0 0
L-4 0" id="m1a32005dea" style="stroke:#000000;stroke-linecap:butt;stroke-width:0.5;"/>
      </defs>
      <g>
       <use style="stroke:#000000;stroke-linecap:butt;stroke-width:0.5;" x="518.4" xlink:href="#m1a32005dea" y="354.1213445"/>
      </g>
     </g>
     <g id="text_9">
      <!-- $10^{-4}$ -->
      <defs>
       <path d="
M65.9062 23
C67.5938 23 69.4062 23 69.4062 25
C69.4062 27 67.5938 27 65.9062 27
L11.7969 27
C10.0938 27 8.29688 27 8.29688 25
C8.29688 23 10.0938 23 11.7969 23
z
" id="CMSY10-0"/>
      </defs>
      <g transform="translate(45.473329993 358.858713947)scale(0.12 -0.12)">
       <use transform="scale(0.996264009963)" xlink:href="#CMR17-49"/>
       <use transform="translate(45.6904771171 0.0)scale(0.996264009963)" xlink:href="#CMR17-48"/>
       <use transform="translate(91.3809542341 36.1536389419)scale(0.697381766617)" xlink:href="#CMSY10-0"/>
       <use transform="translate(145.621947482 36.1536389419)scale(0.697381766617)" xlink:href="#CMR17-52"/>
      </g>
     </g>
    </g>
    <g id="ytick_2">
     <g id="line2d_26">
      <path clip-path="url(#p7ff5b81e1d)" d="
M72 238.921
L518.4 238.921" style="fill:none;stroke:#000000;stroke-dasharray:1.000000,3.000000;stroke-dashoffset:0.0;stroke-linecap:butt;stroke-width:0.5;"/>
     </g>
     <g id="line2d_27">
      <g>
       <use style="stroke:#000000;stroke-linecap:butt;stroke-width:0.5;" x="72.0" xlink:href="#me8a85f7bf6" y="238.9213445"/>
      </g>
     </g>
     <g id="line2d_28">
      <g>
       <use style="stroke:#000000;stroke-linecap:butt;stroke-width:0.5;" x="518.4" xlink:href="#m1a32005dea" y="238.9213445"/>
      </g>
     </g>
     <g id="text_10">
      <!-- $10^{-3}$ -->
      <defs>
       <path d="
M22.0938 33.7031
C31 33.7031 34.9062 25.9688 34.9062 17.0312
C34.9062 5 28.5 0.390625 22.7031 0.390625
C17.4062 0.390625 8.79688 3.03125 6.09375 10.8281
C6.59375 10.625 7.09375 10.625 7.59375 10.625
C10 10.625 11.7969 12.2188 11.7969 14.8125
C11.7969 17.7031 9.59375 19 7.59375 19
C5.90625 19 3.29688 18.2031 3.29688 14.4688
C3.29688 5.23438 12.2969 -2 22.9062 -2
C34 -2 42.5 6.71875 42.5 16.9531
C42.5 26.6719 34.5 33.6875 25 34.7969
C32.5938 36.375 39.9062 43.0625 39.9062 52.0156
C39.9062 59.6875 32 65.2969 23 65.2969
C13.9062 65.2969 5.90625 59.8281 5.90625 52.0156
C5.90625 48.5938 8.5 48 9.79688 48
C11.9062 48 13.7031 49.2969 13.7031 51.8906
C13.7031 54.4688 11.9062 55.7656 9.79688 55.7656
C9.40625 55.7656 8.90625 55.7656 8.5 55.5625
C11.4062 61.8594 19.2969 63 22.7969 63
C26.2969 63 32.9062 61.3281 32.9062 51.875
C32.9062 49.1094 32.5 44.1875 29.0938 39.8438
C26.0938 36 22.7031 36 19.4062 35.5938
C18.9062 35.5938 16.5938 35.5938 16.2031 35.5938
C15.5 35.4844 15.0938 35.3906 15.0938 34.5938
C15.0938 33.8125 15.2031 33.7031 17.2031 33.7031
z
" id="CMR17-51"/>
      </defs>
      <g transform="translate(45.473329993 243.658713947)scale(0.12 -0.12)">
       <use transform="scale(0.996264009963)" xlink:href="#CMR17-49"/>
       <use transform="translate(45.6904771171 0.0)scale(0.996264009963)" xlink:href="#CMR17-48"/>
       <use transform="translate(91.3809542341 36.1536389419)scale(0.697381766617)" xlink:href="#CMSY10-0"/>
       <use transform="translate(145.621947482 36.1536389419)scale(0.697381766617)" xlink:href="#CMR17-51"/>
      </g>
     </g>
    </g>
    <g id="ytick_3">
     <g id="line2d_29">
      <path clip-path="url(#p7ff5b81e1d)" d="
M72 123.721
L518.4 123.721" style="fill:none;stroke:#000000;stroke-dasharray:1.000000,3.000000;stroke-dashoffset:0.0;stroke-linecap:butt;stroke-width:0.5;"/>
     </g>
     <g id="line2d_30">
      <g>
       <use style="stroke:#000000;stroke-linecap:butt;stroke-width:0.5;" x="72.0" xlink:href="#me8a85f7bf6" y="123.7213445"/>
      </g>
     </g>
     <g id="line2d_31">
      <g>
       <use style="stroke:#000000;stroke-linecap:butt;stroke-width:0.5;" x="518.4" xlink:href="#m1a32005dea" y="123.7213445"/>
      </g>
     </g>
     <g id="text_11">
      <!-- $10^{-2}$ -->
      <g transform="translate(45.473329993 128.458713947)scale(0.12 -0.12)">
       <use transform="scale(0.996264009963)" xlink:href="#CMR17-49"/>
       <use transform="translate(45.6904771171 0.0)scale(0.996264009963)" xlink:href="#CMR17-48"/>
       <use transform="translate(91.3809542341 36.1536389419)scale(0.697381766617)" xlink:href="#CMSY10-0"/>
       <use transform="translate(145.621947482 36.1536389419)scale(0.697381766617)" xlink:href="#CMR17-50"/>
      </g>
     </g>
    </g>
    <g id="ytick_4">
     <g id="line2d_32">
      <defs>
       <path d="
M0 0
L2 0" id="md1aed85dae" style="stroke:#000000;stroke-linecap:butt;stroke-width:0.5;"/>
      </defs>
      <g>
       <use style="stroke:#000000;stroke-linecap:butt;stroke-width:0.5;" x="72.0" xlink:href="#md1aed85dae" y="388.8"/>
      </g>
     </g>
     <g id="line2d_33">
      <defs>
       <path d="
M0 0
L-2 0" id="m544cce01ee" style="stroke:#000000;stroke-linecap:butt;stroke-width:0.5;"/>
      </defs>
      <g>
       <use style="stroke:#000000;stroke-linecap:butt;stroke-width:0.5;" x="518.4" xlink:href="#m544cce01ee" y="388.8"/>
      </g>
     </g>
    </g>
    <g id="ytick_5">
     <g id="line2d_34">
      <g>
       <use style="stroke:#000000;stroke-linecap:butt;stroke-width:0.5;" x="72.0" xlink:href="#md1aed85dae" y="379.678320455"/>
      </g>
     </g>
     <g id="line2d_35">
      <g>
       <use style="stroke:#000000;stroke-linecap:butt;stroke-width:0.5;" x="518.4" xlink:href="#m544cce01ee" y="379.678320455"/>
      </g>
     </g>
    </g>
    <g id="ytick_6">
     <g id="line2d_36">
      <g>
       <use style="stroke:#000000;stroke-linecap:butt;stroke-width:0.5;" x="72.0" xlink:href="#md1aed85dae" y="371.96605029"/>
      </g>
     </g>
     <g id="line2d_37">
      <g>
       <use style="stroke:#000000;stroke-linecap:butt;stroke-width:0.5;" x="518.4" xlink:href="#m544cce01ee" y="371.96605029"/>
      </g>
     </g>
    </g>
    <g id="ytick_7">
     <g id="line2d_38">
      <g>
       <use style="stroke:#000000;stroke-linecap:butt;stroke-width:0.5;" x="72.0" xlink:href="#md1aed85dae" y="365.285377998"/>
      </g>
     </g>
     <g id="line2d_39">
      <g>
       <use style="stroke:#000000;stroke-linecap:butt;stroke-width:0.5;" x="518.4" xlink:href="#m544cce01ee" y="365.285377998"/>
      </g>
     </g>
    </g>
    <g id="ytick_8">
     <g id="line2d_40">
      <g>
       <use style="stroke:#000000;stroke-linecap:butt;stroke-width:0.5;" x="72.0" xlink:href="#md1aed85dae" y="359.392607412"/>
      </g>
     </g>
     <g id="line2d_41">
      <g>
       <use style="stroke:#000000;stroke-linecap:butt;stroke-width:0.5;" x="518.4" xlink:href="#m544cce01ee" y="359.392607412"/>
      </g>
     </g>
    </g>
    <g id="ytick_9">
     <g id="line2d_42">
      <g>
       <use style="stroke:#000000;stroke-linecap:butt;stroke-width:0.5;" x="72.0" xlink:href="#md1aed85dae" y="319.442688999"/>
      </g>
     </g>
     <g id="line2d_43">
      <g>
       <use style="stroke:#000000;stroke-linecap:butt;stroke-width:0.5;" x="518.4" xlink:href="#m544cce01ee" y="319.442688999"/>
      </g>
     </g>
    </g>
    <g id="ytick_10">
     <g id="line2d_44">
      <g>
       <use style="stroke:#000000;stroke-linecap:butt;stroke-width:0.5;" x="72.0" xlink:href="#md1aed85dae" y="299.156975956"/>
      </g>
     </g>
     <g id="line2d_45">
      <g>
       <use style="stroke:#000000;stroke-linecap:butt;stroke-width:0.5;" x="518.4" xlink:href="#m544cce01ee" y="299.156975956"/>
      </g>
     </g>
    </g>
    <g id="ytick_11">
     <g id="line2d_46">
      <g>
       <use style="stroke:#000000;stroke-linecap:butt;stroke-width:0.5;" x="72.0" xlink:href="#md1aed85dae" y="284.764033499"/>
      </g>
     </g>
     <g id="line2d_47">
      <g>
       <use style="stroke:#000000;stroke-linecap:butt;stroke-width:0.5;" x="518.4" xlink:href="#m544cce01ee" y="284.764033499"/>
      </g>
     </g>
    </g>
    <g id="ytick_12">
     <g id="line2d_48">
      <g>
       <use style="stroke:#000000;stroke-linecap:butt;stroke-width:0.5;" x="72.0" xlink:href="#md1aed85dae" y="273.6"/>
      </g>
     </g>
     <g id="line2d_49">
      <g>
       <use style="stroke:#000000;stroke-linecap:butt;stroke-width:0.5;" x="518.4" xlink:href="#m544cce01ee" y="273.6"/>
      </g>
     </g>
    </g>
    <g id="ytick_13">
     <g id="line2d_50">
      <g>
       <use style="stroke:#000000;stroke-linecap:butt;stroke-width:0.5;" x="72.0" xlink:href="#md1aed85dae" y="264.478320455"/>
      </g>
     </g>
     <g id="line2d_51">
      <g>
       <use style="stroke:#000000;stroke-linecap:butt;stroke-width:0.5;" x="518.4" xlink:href="#m544cce01ee" y="264.478320455"/>
      </g>
     </g>
    </g>
    <g id="ytick_14">
     <g id="line2d_52">
      <g>
       <use style="stroke:#000000;stroke-linecap:butt;stroke-width:0.5;" x="72.0" xlink:href="#md1aed85dae" y="256.76605029"/>
      </g>
     </g>
     <g id="line2d_53">
      <g>
       <use style="stroke:#000000;stroke-linecap:butt;stroke-width:0.5;" x="518.4" xlink:href="#m544cce01ee" y="256.76605029"/>
      </g>
     </g>
    </g>
    <g id="ytick_15">
     <g id="line2d_54">
      <g>
       <use style="stroke:#000000;stroke-linecap:butt;stroke-width:0.5;" x="72.0" xlink:href="#md1aed85dae" y="250.085377998"/>
      </g>
     </g>
     <g id="line2d_55">
      <g>
       <use style="stroke:#000000;stroke-linecap:butt;stroke-width:0.5;" x="518.4" xlink:href="#m544cce01ee" y="250.085377998"/>
      </g>
     </g>
    </g>
    <g id="ytick_16">
     <g id="line2d_56">
      <g>
       <use style="stroke:#000000;stroke-linecap:butt;stroke-width:0.5;" x="72.0" xlink:href="#md1aed85dae" y="244.192607412"/>
      </g>
     </g>
     <g id="line2d_57">
      <g>
       <use style="stroke:#000000;stroke-linecap:butt;stroke-width:0.5;" x="518.4" xlink:href="#m544cce01ee" y="244.192607412"/>
      </g>
     </g>
    </g>
    <g id="ytick_17">
     <g id="line2d_58">
      <g>
       <use style="stroke:#000000;stroke-linecap:butt;stroke-width:0.5;" x="72.0" xlink:href="#md1aed85dae" y="204.242688999"/>
      </g>
     </g>
     <g id="line2d_59">
      <g>
       <use style="stroke:#000000;stroke-linecap:butt;stroke-width:0.5;" x="518.4" xlink:href="#m544cce01ee" y="204.242688999"/>
      </g>
     </g>
    </g>
    <g id="ytick_18">
     <g id="line2d_60">
      <g>
       <use style="stroke:#000000;stroke-linecap:butt;stroke-width:0.5;" x="72.0" xlink:href="#md1aed85dae" y="183.956975956"/>
      </g>
     </g>
     <g id="line2d_61">
      <g>
       <use style="stroke:#000000;stroke-linecap:butt;stroke-width:0.5;" x="518.4" xlink:href="#m544cce01ee" y="183.956975956"/>
      </g>
     </g>
    </g>
    <g id="ytick_19">
     <g id="line2d_62">
      <g>
       <use style="stroke:#000000;stroke-linecap:butt;stroke-width:0.5;" x="72.0" xlink:href="#md1aed85dae" y="169.564033499"/>
      </g>
     </g>
     <g id="line2d_63">
      <g>
       <use style="stroke:#000000;stroke-linecap:butt;stroke-width:0.5;" x="518.4" xlink:href="#m544cce01ee" y="169.564033499"/>
      </g>
     </g>
    </g>
    <g id="ytick_20">
     <g id="line2d_64">
      <g>
       <use style="stroke:#000000;stroke-linecap:butt;stroke-width:0.5;" x="72.0" xlink:href="#md1aed85dae" y="158.4"/>
      </g>
     </g>
     <g id="line2d_65">
      <g>
       <use style="stroke:#000000;stroke-linecap:butt;stroke-width:0.5;" x="518.4" xlink:href="#m544cce01ee" y="158.4"/>
      </g>
     </g>
    </g>
    <g id="ytick_21">
     <g id="line2d_66">
      <g>
       <use style="stroke:#000000;stroke-linecap:butt;stroke-width:0.5;" x="72.0" xlink:href="#md1aed85dae" y="149.278320455"/>
      </g>
     </g>
     <g id="line2d_67">
      <g>
       <use style="stroke:#000000;stroke-linecap:butt;stroke-width:0.5;" x="518.4" xlink:href="#m544cce01ee" y="149.278320455"/>
      </g>
     </g>
    </g>
    <g id="ytick_22">
     <g id="line2d_68">
      <g>
       <use style="stroke:#000000;stroke-linecap:butt;stroke-width:0.5;" x="72.0" xlink:href="#md1aed85dae" y="141.56605029"/>
      </g>
     </g>
     <g id="line2d_69">
      <g>
       <use style="stroke:#000000;stroke-linecap:butt;stroke-width:0.5;" x="518.4" xlink:href="#m544cce01ee" y="141.56605029"/>
      </g>
     </g>
    </g>
    <g id="ytick_23">
     <g id="line2d_70">
      <g>
       <use style="stroke:#000000;stroke-linecap:butt;stroke-width:0.5;" x="72.0" xlink:href="#md1aed85dae" y="134.885377998"/>
      </g>
     </g>
     <g id="line2d_71">
      <g>
       <use style="stroke:#000000;stroke-linecap:butt;stroke-width:0.5;" x="518.4" xlink:href="#m544cce01ee" y="134.885377998"/>
      </g>
     </g>
    </g>
    <g id="ytick_24">
     <g id="line2d_72">
      <g>
       <use style="stroke:#000000;stroke-linecap:butt;stroke-width:0.5;" x="72.0" xlink:href="#md1aed85dae" y="128.992607412"/>
      </g>
     </g>
     <g id="line2d_73">
      <g>
       <use style="stroke:#000000;stroke-linecap:butt;stroke-width:0.5;" x="518.4" xlink:href="#m544cce01ee" y="128.992607412"/>
      </g>
     </g>
    </g>
    <g id="ytick_25">
     <g id="line2d_74">
      <g>
       <use style="stroke:#000000;stroke-linecap:butt;stroke-width:0.5;" x="72.0" xlink:href="#md1aed85dae" y="89.042688999"/>
      </g>
     </g>
     <g id="line2d_75">
      <g>
       <use style="stroke:#000000;stroke-linecap:butt;stroke-width:0.5;" x="518.4" xlink:href="#m544cce01ee" y="89.042688999"/>
      </g>
     </g>
    </g>
    <g id="ytick_26">
     <g id="line2d_76">
      <g>
       <use style="stroke:#000000;stroke-linecap:butt;stroke-width:0.5;" x="72.0" xlink:href="#md1aed85dae" y="68.7569759558"/>
      </g>
     </g>
     <g id="line2d_77">
      <g>
       <use style="stroke:#000000;stroke-linecap:butt;stroke-width:0.5;" x="518.4" xlink:href="#m544cce01ee" y="68.7569759558"/>
      </g>
     </g>
    </g>
    <g id="ytick_27">
     <g id="line2d_78">
      <g>
       <use style="stroke:#000000;stroke-linecap:butt;stroke-width:0.5;" x="72.0" xlink:href="#md1aed85dae" y="54.3640334985"/>
      </g>
     </g>
     <g id="line2d_79">
      <g>
       <use style="stroke:#000000;stroke-linecap:butt;stroke-width:0.5;" x="518.4" xlink:href="#m544cce01ee" y="54.3640334985"/>
      </g>
     </g>
    </g>
    <g id="ytick_28">
     <g id="line2d_80">
      <g>
       <use style="stroke:#000000;stroke-linecap:butt;stroke-width:0.5;" x="72.0" xlink:href="#md1aed85dae" y="43.2"/>
      </g>
     </g>
     <g id="line2d_81">
      <g>
       <use style="stroke:#000000;stroke-linecap:butt;stroke-width:0.5;" x="518.4" xlink:href="#m544cce01ee" y="43.2"/>
      </g>
     </g>
    </g>
    <g id="text_12">
     <!-- log(difference) -->
     <defs>
      <path d="
M46.5 23
C46.5938 37.8125 38.0938 48.2812 25.9062 48.2812
C13.0938 48.2812 3.5 37.25 3.5 22.3438
C3.5 8.4375 12.5938 -1 26.0938 -1
C35.5938 -1 42.4062 3.6875 46.5 13.1875
L43 15.0938
C38.9062 7.39062 34.7031 4.39062 28 4.39062
C22.9062 4.39062 19.2031 6.59375 16.5938 11
C14.7969 14 14 17.5 14.0938 23
z

M14.2031 27.2969
C14.2031 30.3438 14.5938 32.5 15.5938 35.25
C17.7031 41.1406 20.9062 44 25.7031 44
C31.7969 44 35.7969 38.7812 35.7969 30.9219
C35.7969 28.0781 34.9062 27.2969 31.7031 27.2969
z
" id="Century_Schoolbook_L_Roman-101"/>
      <path d="
M38 0
L55.4062 0
L55.4062 4.70312
L53.5938 4.70312
C48.2031 4.70312 47.4062 5.70312 47.4062 11.9688
L47.4062 73.7812
L27.7969 73.7812
L27.7969 69
L33.7031 69
C37.2969 69 38 68.2812 38 63.9219
L38 41
C34.2969 46.0938 30 48.3906 24.2031 48.3906
C12.9062 48.3906 4.29688 37.5469 4.29688 23.2031
C4.29688 9.0625 12.5938 -1 24.2031 -1
C30.5 -1 34.7969 1.67188 38 7.59375
z

M26.2031 43
C30.2969 43 34.2031 40.0312 36 35.4375
C37.2031 32.4531 37.9062 28.2812 37.9062 23.5156
C37.9062 11.9688 33.2969 4.39062 26.0938 4.39062
C19.0938 4.39062 14.7969 10.9688 14.7969 22.0156
C14.7969 27.8906 15.4062 32.3594 16.7031 35.7344
C18.4062 40.125 22.0938 43 26.2031 43" id="Century_Schoolbook_L_Roman-100"/>
      <path d="
M19.5938 7.59375
C14.0938 7.59375 13.7969 7.70312 12.5938 8.46875
C11.9062 8.90625 11.4062 10.1094 11.4062 11.2969
C11.4062 14.5781 14.0938 16 20.7969 16
C30.2969 16 31.7969 16.2031 35.0938 17.6875
C41.0938 20.3594 44.5 25.4844 44.5 31.9844
C44.5 35.9219 43.5938 38.3906 40.7969 41.6406
C42.5 43.4062 43.4062 44 44.2031 44
C44.7031 44 45 43.6875 45.2031 42.625
C45.5938 40.2656 47.2031 39 49.7031 39
C52.2031 39 54.2031 41.0938 54.2031 43.7812
C54.2031 47.1875 51.5 49.5781 47.5938 49.5781
C44.4062 49.5781 42.5938 48.5625 38 44.2969
C33.7969 47.0938 30.5938 48.0781 25.5938 48.0781
C13.7031 48.0781 5.90625 41.625 5.90625 31.8125
C5.90625 26.0312 9.09375 21.0312 14.2969 18.6875
C7.59375 17.1562 4.79688 14.0938 4.79688 8.46875
C4.79688 3.98438 6.79688 1.32812 11.5 -0.296875
C5.29688 -2.48438 2.29688 -5.67188 2.29688 -9.75
C2.29688 -16.3125 10 -20 23.4062 -20
C40.0938 -20 48.5 -14.7188 48.5 -4.25
C48.5 0.71875 46.2031 4.6875 42.5 6.1875
C39.9062 7.1875 36.7031 7.59375 29.7969 7.59375
z

M25.5 44
C31.7969 44 35.2969 39.6719 35.2969 32.0938
C35.2969 24.4219 31.5 19.7812 25.0938 19.7812
C18.9062 19.7812 15 24.4219 15 31.7969
C15 39.5625 18.7969 44 25.5 44
M24.5938 -1
C32.9062 -1 33.5 -1 35 -1.1875
C39 -1.59375 41.5 -3.78125 41.5 -6.95312
C41.5 -12.625 35 -15.9062 23.7969 -15.9062
C15.4062 -15.9062 10.5938 -13.4219 10.5938 -8.95312
C10.5938 -5.67188 12.4062 -3.46875 17.2031 -1
z
" id="Century_Schoolbook_L_Roman-103"/>
      <path d="
M20.0938 46.2969
L20.0938 52.1406
C20.0938 57.2656 20.4062 60.6562 21.2031 62.7188
C22.7969 67.2344 26.2969 70 30.2969 70
C32.4062 70 33.7031 69.3906 33.7031 68.2656
C33.7031 67.9375 33.5938 67.75 33.0938 66.9219
C32.5 65.9062 32.2031 64.7656 32.2031 63.6406
C32.2031 60.5469 34.5938 58.2031 37.7031 58.2031
C41 58.2031 43.2969 60.7344 43.2969 64.4062
C43.2969 70.3281 38.2969 74 30.2031 74
C23.2969 74 18.2969 71.5312 14.7031 66.4375
C11.7031 62.1406 10.7031 57.7344 10.7031 49.4688
L10.7031 46.2969
L1.90625 46.2969
L1.90625 42
L10.7031 42
L10.7031 12.2344
L10.7031 8.25
C10.7031 4.29688 9.59375 3.59375 3.20312 3.59375
L2.79688 3.59375
L2.79688 0
L29.5 0
L29.5 3.59375
L27.7031 3.59375
C21.2031 3.59375 20.0938 4.29688 20.0938 8.25
L20.0938 12.2344
L20.0938 42
L31.0938 42
L31.0938 46.2969
z
" id="Century_Schoolbook_L_Roman-102"/>
      <path d="
M20.5938 46
L1.79688 46
L1.79688 41.2188
L6.90625 41.2188
C10.5938 41.2188 11.2031 40.5156 11.2031 36.2031
L11.2031 12.2969
L11.2031 8.29688
C11.2031 4.29688 10.0938 3.59375 3.70312 3.59375
L3 3.59375
L3 0
L28.9062 0
L28.9062 3.59375
L28.2031 3.59375
C21.7031 3.59375 20.5938 4.28125 20.5938 8.21875
L20.5938 12.1719
z

M15.9062 71.5781
C12.7031 71.5781 10.0938 68.9844 10.0938 65.7969
C10.0938 62.7031 12.7031 60 15.7969 60
C19.0938 60 21.7031 62.5938 21.7031 65.7969
C21.7031 68.9844 19.0938 71.5781 15.9062 71.5781" id="Century_Schoolbook_L_Roman-105"/>
      <path d="
M38.7031 15.1094
C35.5 7.96875 32.0938 5.09375 26.9062 5.09375
C18.9062 5.09375 13.9062 12.3281 13.9062 23.9375
C13.9062 35.9531 18.7969 44 26.2031 44
C29.2031 44 31.7969 42.5938 31.7969 41.0156
C31.7969 40.7188 31.5938 40.4219 31.2031 39.8125
C29.5938 37.9375 29.2031 36.9375 29.2031 35.2656
C29.2031 31.9844 31.7031 29.7031 35.2031 29.7031
C38.7031 29.7031 41.2969 32.4844 41.2969 36.4531
C41.2969 43.1094 34.5938 48.2812 25.7031 48.2812
C12.7031 48.2812 3.40625 37.6562 3.40625 22.8438
C3.40625 8.73438 11.9062 -1 24.2969 -1
C33.2031 -1 38.2969 3.07812 42.5938 13.625
z
" id="Century_Schoolbook_L_Roman-99"/>
      <path d="
M20 46
L2.70312 46
L2.70312 41.2188
L6.29688 41.2188
C10 41.2188 10.5938 40.5156 10.5938 36.2031
L10.5938 12.2969
L10.5938 8.29688
C10.5938 4.29688 9.5 3.59375 3.09375 3.59375
L2.70312 3.59375
L2.70312 0
L28 0
L28 3.59375
L27.5938 3.59375
C21.0938 3.59375 20 4.29688 20 8.28125
L20 12.2812
L20 22.6562
C20 27.5469 20.7031 32.0312 21.7969 34.3281
C23.9062 38.8281 28.4062 41.9219 32.7031 41.9219
C35.2969 41.9219 38.2969 40.4219 39.7969 38.4219
C41.2969 36.3281 42 33.2344 42 28.4375
L42 12.2812
L42 8.28125
C42 4.29688 40.9062 3.59375 34.4062 3.59375
L34 3.59375
L34 0
L59.2969 0
L59.2969 3.59375
L58.9062 3.59375
C52.5 3.59375 51.4062 4.29688 51.4062 8.28125
L51.4062 12.2812
L51.4062 27.9531
C51.4062 35.125 51.0938 36.9219 49.2969 40.3281
C46.7969 45.1094 41.7031 48 35.7969 48
C29.4062 48 24.4062 45.0469 20 38.5156
z
" id="Century_Schoolbook_L_Roman-110"/>
      <path d="
M25.2031 48.2812
C13 48.2812 3.40625 37.4531 3.40625 23.5469
C3.40625 9.9375 13 -1 25 -1
C37 -1 46.5938 9.9375 46.5938 23.6406
C46.5938 37.25 37 48.2812 25.2031 48.2812
M25.2031 44
C32.2031 44 36.0938 36.7344 36.0938 23.6406
C36.0938 10.4531 32.2031 3.29688 25 3.29688
C17.7969 3.29688 13.9062 10.4531 13.9062 23.5469
C13.9062 37.0469 17.7031 44 25.2031 44" id="Century_Schoolbook_L_Roman-111"/>
      <path d="
M20.4062 73
L1.90625 73
L1.90625 68.2188
L6.79688 68.2188
C10.4062 68.2188 11 67.5156 11 63.2188
L11 12.2812
L11 8.28125
C11 4.29688 9.90625 3.59375 3.5 3.59375
L2.79688 3.59375
L2.79688 0
L28.7031 0
L28.7031 3.59375
L28 3.59375
C21.5 3.59375 20.4062 4.29688 20.4062 8.25
L20.4062 12.2188
z
" id="Century_Schoolbook_L_Roman-108"/>
      <path d="
M19.7969 46
L2.09375 46
L2.09375 41.2188
L6.20312 41.2188
C9.90625 41.2188 10.5 40.5156 10.5 36.2031
L10.5 12.2969
L10.5 8.29688
C10.5 4.29688 9.40625 3.59375 2.90625 3.59375
L2.5 3.59375
L2.5 0
L29.2031 0
L29.2031 3.59375
L27.2969 3.59375
C20.9062 3.59375 19.7969 4.29688 19.7969 8.29688
L19.7969 12.2969
L19.7969 13.2969
C19.7969 20.8125 21.2031 28.4062 23.7031 34.1094
C26.0938 39.7031 29.5 42.8125 33.7031 43.3125
C32.2969 41.7031 31.9062 40.6875 31.9062 38.7656
C31.9062 35.5469 34.2031 33.2344 37.4062 33.2344
C41 33.2344 43.5 35.9375 43.5 40.0156
C43.5 44.8125 40.0938 48 34.7969 48
C28.5 48 23 42.9219 19.7969 34.1406
z
" id="Century_Schoolbook_L_Roman-114"/>
      <path d="
M5.40625 -12.2812
C11.4062 -8.57812 14.5938 -5.98438 18 -1.89062
C25.5938 6.98438 29.7031 18.5625 29.7031 30.6406
C29.7031 42.0156 26.0938 52.7031 19.4062 61.4844
C15.5938 66.375 12.2031 69.3594 5.40625 73.4531
L5.40625 69.7656
C15.4062 60.9844 19.4062 49.7969 19.4062 30.6406
C19.4062 11.375 15.4062 0.203125 5.40625 -8.57812
z
" id="Century_Schoolbook_L_Roman-41"/>
      <path d="
M27.9062 73.4531
C21.9062 69.7656 18.7031 67.1719 15.2969 63.1719
C7.70312 54.1875 3.59375 42.7188 3.59375 30.6406
C3.59375 19.2656 7.20312 8.57812 13.9062 -0.296875
C17.7031 -5.09375 21.0938 -8.07812 27.9062 -12.2812
L27.9062 -8.57812
C17.9062 0.203125 13.9062 11.4844 13.9062 30.6406
C13.9062 49.7969 17.9062 60.9844 27.9062 69.7656
z
" id="Century_Schoolbook_L_Roman-40"/>
     </defs>
     <g transform="translate(40.473329993 268.379185355)rotate(-90.0)scale(0.16 -0.16)">
      <use transform="translate(0.0 18.9286817501)scale(0.996264009963)" xlink:href="#Century_Schoolbook_L_Roman-108"/>
      <use transform="translate(31.3813129962 18.9286817501)scale(0.996264009963)" xlink:href="#Century_Schoolbook_L_Roman-111"/>
      <use transform="translate(81.1945134943 18.9286817501)scale(0.996264009963)" xlink:href="#Century_Schoolbook_L_Roman-103"/>
      <use transform="translate(134.693857385 18.9286817501)scale(0.996264009963)" xlink:href="#Century_Schoolbook_L_Roman-40"/>
      <use transform="translate(167.869087115 18.9286817501)scale(0.996264009963)" xlink:href="#Century_Schoolbook_L_Roman-100"/>
      <use transform="translate(225.054574399 18.9286817501)scale(0.996264009963)" xlink:href="#Century_Schoolbook_L_Roman-105"/>
      <use transform="translate(256.435887395 18.9286817501)scale(0.996264009963)" xlink:href="#Century_Schoolbook_L_Roman-102"/>
      <use transform="translate(289.611117124 18.9286817501)scale(0.996264009963)" xlink:href="#Century_Schoolbook_L_Roman-102"/>
      <use transform="translate(322.78614923 18.9286817501)scale(0.996264009963)" xlink:href="#Century_Schoolbook_L_Roman-101"/>
      <use transform="translate(372.599349729 18.9286817501)scale(0.996264009963)" xlink:href="#Century_Schoolbook_L_Roman-114"/>
      <use transform="translate(416.832918426 18.9286817501)scale(0.996264009963)" xlink:href="#Century_Schoolbook_L_Roman-101"/>
      <use transform="translate(466.646118924 18.9286817501)scale(0.996264009963)" xlink:href="#Century_Schoolbook_L_Roman-110"/>
      <use transform="translate(527.517749601 18.9286817501)scale(0.996264009963)" xlink:href="#Century_Schoolbook_L_Roman-99"/>
      <use transform="translate(571.751318299 18.9286817501)scale(0.996264009963)" xlink:href="#Century_Schoolbook_L_Roman-101"/>
      <use transform="translate(621.564518797 18.9286817501)scale(0.996264009963)" xlink:href="#Century_Schoolbook_L_Roman-41"/>
     </g>
    </g>
   </g>
   <g id="patch_3">
    <path d="
M72 43.2
L518.4 43.2" style="fill:none;stroke:#000000;"/>
   </g>
   <g id="patch_4">
    <path d="
M518.4 388.8
L518.4 43.2" style="fill:none;stroke:#000000;"/>
   </g>
   <g id="patch_5">
    <path d="
M72 388.8
L518.4 388.8" style="fill:none;stroke:#000000;"/>
   </g>
   <g id="patch_6">
    <path d="
M72 388.8
L72 43.2" style="fill:none;stroke:#000000;"/>
   </g>
  </g>
  <g id="text_13">
   <!-- Relative Difference between $\frac{1}{\sqrt{n!}}$ and $(2n\pi)^{-\frac{1}{4}}\left(\frac{e}{n}\right)^{\frac{n}{2}}$ -->
   <defs>
    <path d="
M19.4062 47
L19.4062 67
L15.2969 67
C14.2969 53.875 9.90625 47.1875 1.79688 46.5938
L1.79688 42.7031
L10 42.7031
L10 17.2656
C10 10.2812 10.2031 7.78125 11.2031 5.48438
C12.7969 1.29688 16.7969 -1 22.5938 -1
C26.5 -1 29.9062 0.203125 32.2031 2.39062
C35.5 5.59375 37.4062 10.875 37.4062 16.375
C37.4062 16.9688 37.4062 17.6719 37.2969 18.6719
L33.0938 18.6719
C32.7969 9.6875 30.2031 5.09375 25.2969 5.09375
C23 5.09375 21 6.28125 20.2969 7.98438
C19.7031 9.375 19.4062 11.875 19.4062 15.4688
L19.4062 42.7031
L34.0938 42.7031
L34.0938 47
z
" id="Century_Schoolbook_L_Roman-116"/>
    <path d="
M16.5938 66.8594
C16.5938 69.75 14.2031 70.8438 12.5 70.8438
C10.7969 70.8438 8.40625 69.75 8.40625 66.8594
L11.5 18.7969
C11.5938 17.4844 11.5938 17 12.5 17
C13.4062 17 13.4062 17.4844 13.5 18.7969
z

M16.5938 4.07812
C16.5938 6.26562 14.7969 8.15625 12.5 8.15625
C10.2969 8.15625 8.40625 6.375 8.40625 4.07812
C8.40625 1.89062 10.2031 0 12.5 0
C14.7031 0 16.5938 1.79688 16.5938 4.07812" id="CMR17-33"/>
    <path d="
M17.9062 23.1094
C20.5938 23.1094 27.4062 23.1094 32.2031 24.9219
C39.7969 27.8594 40.5 33.7188 40.5 35.5312
C40.5 39.9688 36.7031 44 30.0938 44
C19.5938 44 4.5 34.5312 4.5 16.7656
C4.5 6.28125 10.5 -1 19.5938 -1
C33.2031 -1 41.7969 9.53125 41.7969 10.8125
C41.7969 11.4062 41.2031 11.9062 40.7969 11.9062
C40.5 11.9062 40.4062 11.8125 39.5 10.9219
C33.0938 2.48438 23.5938 1 19.7969 1
C14.0938 1 11.0938 5.46875 11.0938 12.8438
C11.0938 14.2344 11.0938 16.7344 12.5938 23.1094
z

M13.0938 25
C17.4062 40.5 26.9062 42.0156 30.0938 42.0156
C34.5 42.0156 37.5 39.4062 37.5 35.5781
C37.5 25 21.5 25 17.2969 25
z
" id="CMMI12-101"/>
    <path d="
M18 73
L0.796875 73
L0.796875 68.2188
L4.29688 68.2188
C8 68.2188 8.59375 67.5156 8.59375 63.25
L8.59375 24.625
C8.59375 11.3125 8.09375 4.84375 6.79688 -1
L10.5938 -1
L15.5 6.75
C19.5938 1.45312 24.2969 -1 30.5 -1
C42.7969 -1 52 9.59375 52 23.8281
C52 38.0781 43.5938 48.0781 31.5938 48.0781
C25.5 48.0781 21.7969 46 18 40.3281
z

M29.7969 43
C37.2969 43 41.5 35.7656 41.5 22.7969
C41.5 10.3125 37.4062 3.1875 30.0938 3.1875
C22.2031 3.1875 17.5 10.4062 17.5 22.5938
C17.5 35.7656 21.7969 43 29.7969 43" id="Century_Schoolbook_L_Roman-98"/>
    <path d="
M30.5 -56
C30.5 -41.7969 28 -21.7031 14.9062 -4.79688
C13.9062 -3.59375 7.40625 4 5.59375 4
C5.09375 4 4.40625 3.79688 4.40625 3
C4.40625 2.59375 4.59375 2.29688 5 2
C9.79688 -3.20312 16.2969 -11.2969 20.4062 -27.2031
C22.7031 -36.2969 23.5938 -46.5938 23.5938 -55.9062
C23.5938 -66 22.7031 -76.2031 20.0938 -86
C16.2969 -100 10.4062 -108 5.29688 -113.594
C4.40625 -114.5 4.40625 -114.703 4.40625 -114.906
C4.40625 -115.703 5.09375 -115.906 5.59375 -115.906
C7.09375 -115.906 12.5938 -109.797 13.7969 -108.406
C24 -96.2969 30.5 -78.2969 30.5 -56" id="CMEX10-1"/>
    <path d="
M45.2031 32.5781
C45.2031 38.7969 44.0938 41.9688 41.2031 44.3438
C37.9062 46.9062 33 48.2812 26.5938 48.2812
C15.4062 48.2812 7.09375 43.0469 7.09375 35.9219
C7.09375 32.1562 9.40625 29.7812 12.9062 29.7812
C16 29.7812 18.2969 31.8594 18.2969 34.8125
C18.2969 36.1094 17.7969 37.4844 16.7969 38.875
C16.2031 39.5469 16.0938 39.8438 16.0938 40.1562
C16.0938 42.2188 20.2031 44 25 44
C28.0938 44 31.5938 43.0156 33.2031 41.5312
C35.0938 39.9531 35.7969 37.5781 35.7969 33.125
L35.7969 29.2812
C25.2969 27.4844 22.0938 26.6875 17.2031 24.8125
C8.59375 21.6094 4.40625 16.9375 4.40625 10.6562
C4.40625 3.57812 10.0938 -1 18.9062 -1
C25.7969 -1 32 1.85938 36.2969 7.0625
C37.9062 1.98438 40.4062 0 45.0938 0
C49.5938 0 54.2969 2.90625 54.2969 5.78125
C54.2969 6.46875 53.7969 6.96875 53.2969 6.96875
C52.9062 6.96875 52.5 6.875 51.7969 6.57812
C50.2031 6 49.7969 5.89062 49 5.89062
C46.2031 5.89062 45.2031 7.78125 45.2031 12.7188
z

M35.7969 20.4688
C35.7969 14.4688 35.5 13.0781 33.7969 10.4844
C31.2969 6.78125 26.7031 4.29688 22.4062 4.29688
C17.9062 4.29688 14.5 7.59375 14.5 12.0781
C14.5 16.2656 16.5938 19.2656 21 21.3594
C24.0938 22.75 28 23.75 35.7969 25.0469
z
" id="Century_Schoolbook_L_Roman-97"/>
    <path d="
M24.5938 35
L30.4062 35
C34.2969 35 38.2969 33.7969 40.5 31.9844
C43.4062 29.6875 44.9062 26.0781 45.5938 19.4688
L46.0938 14.3438
C47.2969 3.01562 51 -1.59375 58.9062 -1.59375
C67.0938 -1.59375 71 3.92188 71.2969 15.9219
L67.0938 15.9219
C66.7031 9 65.5 6 62.7969 6
C60.5 6 59.5 7.70312 57.7969 14.625
L56.2031 20.9375
C54 30.1719 50.0938 34.375 42.2969 36.3906
C56.7031 38.3906 63.5938 44.1406 63.5938 54.1875
C63.5938 65.5312 54 72 37.2031 72
L2.59375 72
L2.59375 67.3125
L4.40625 67.3125
C12.5 67.3125 13.4062 66.8125 13.4062 62.6094
L13.4062 59.7188
L13.4062 12.1719
L13.4062 9.375
C13.4062 5.1875 12.5 4.6875 4.40625 4.6875
L2.59375 4.6875
L2.59375 0
L35.4062 0
L35.4062 4.6875
L33.5938 4.6875
C25.5 4.6875 24.5938 5.1875 24.5938 9.39062
L24.5938 12.1875
z

M24.5938 39.6875
L24.5938 61.5469
C24.5938 65.5312 24.7031 65.8125 25.7031 66.6094
C26.5 67.2031 27.2031 67.3125 31.5 67.3125
L36.9062 67.3125
C46.7969 67.3125 51.2969 63.125 51.2969 54.0938
C51.2969 49.0156 50 45.1406 47.4062 43.0625
C44.9062 40.9844 40.4062 39.6875 35.5938 39.6875
z
" id="Century_Schoolbook_L_Roman-82"/>
    <path d="
M29.5 12.0938
L18.0938 38.5938
C17.7969 39.2031 17.5938 40.0938 17.5938 40.7031
C17.5938 42.3906 18.9062 43 23 43
L24.4062 43
L24.4062 46.5938
L0.796875 46.5938
L0.796875 43
L1.59375 43
C5.40625 43 6.79688 42.0938 8.20312 38.7031
L25.4062 -1.5
L28.9062 -1.5
L43.0938 33.5938
C45.7969 40.2031 48.5938 43 52.4062 43
L52.7969 43
L52.7969 46.5938
L32.7969 46.5938
L32.7969 43
L34.2031 43
C37.7031 43 39.5938 41.7969 39.5938 39.5
C39.5938 38.3906 39.2031 36.7969 38.7031 35.2969
z
" id="Century_Schoolbook_L_Roman-118"/>
    <path d="
M54.7031 12.9062
L44.9062 38.6094
C44.5938 39.2969 44.5 39.7969 44.5 40.7031
C44.5 42.5 45.4062 43 48.7031 43
L51.0938 43
L51.0938 46.5938
L28.7031 46.5938
L28.7031 43
L30.4062 43
C33.5 43 34.7031 42.2031 35.5938 39.2969
L36.5 36.6875
L27.7031 13.4062
L18 38.5
C17.7969 39.2031 17.5938 40.0938 17.5938 40.7031
C17.5938 42.3906 18.7031 43 21.7031 43
L23.5 43
L23.5 46.5938
L1.5 46.5938
L1.5 43
L3.29688 43
C6.09375 43 7.09375 42.0938 8.5 38.0938
L23.5 -1.5
L27 -1.5
L38.9062 30.0938
L51.0938 -1.5
L54.2031 -1.5
L68.2031 35.3906
C70.4062 41.2969 72.0938 43 75.5938 43
L76.2969 43
L76.2969 46.5938
L57.4062 46.5938
L57.4062 43
L59.0938 43
C62.5938 43 64 41.8906 64 39.4062
C64 38.4062 63.7031 36.8906 63.2031 35.6875
z
" id="Century_Schoolbook_L_Roman-119"/>
    <path d="
M26.2969 24.6719
C26.2969 31.8438 25.5938 43.9844 19.5938 56.8281
C14.7969 67.1875 6.59375 74.4531 5.40625 74.4531
C5.09375 74.4531 4.70312 74.3438 4.70312 73.8438
C4.70312 73.6562 4.79688 73.5469 4.90625 73.3438
C9.70312 68.375 21.9062 55.7344 21.9062 24.7812
C21.9062 -6.28125 9.79688 -18.9219 4.90625 -23.9062
C4.79688 -24.0938 4.70312 -24.2031 4.70312 -24.3906
C4.70312 -24.8906 5.09375 -25 5.40625 -25
C6.5 -25 15 -17.625 19.9062 -6.67188
C24.9062 4.375 26.2969 15.125 26.2969 24.6719" id="CMR17-41"/>
    <path d="
M30.5938 -24.3906
C30.5938 -24.2969 30.5938 -24.0938 30.2969 -23.7969
C25.7031 -19.125 13.4062 -6.375 13.4062 24.6875
C13.4062 55.75 25.5 68.3906 30.4062 73.3594
C30.4062 73.4688 30.5938 73.6719 30.5938 73.9531
C30.5938 74.25 30.2969 74.4531 29.9062 74.4531
C28.7969 74.4531 20.2969 67.0781 15.4062 56.125
C10.4062 45.0781 9 34.3281 9 24.7812
C9 17.6094 9.70312 5.46875 15.7031 -7.375
C20.5 -17.7344 28.7031 -25 29.9062 -25
C30.4062 -25 30.5938 -24.7969 30.5938 -24.3906" id="CMR17-40"/>
    <path d="
M13.7031 12.2812
L13.7031 9.375
C13.7031 5.1875 12.7969 4.6875 4.79688 4.6875
L2.90625 4.6875
L2.90625 0
L36.5 0
C45.4062 0 52.2031 1.39062 57.5 4.39062
C67.5938 10.0625 73.2031 21.4375 73.2031 36.3906
C73.2031 50.0625 68.2031 60.9375 59 66.9062
C53.5 70.4062 46.0938 72 34.7031 72
L2.90625 72
L2.90625 67.3125
L4.79688 67.3125
C12.7969 67.3125 13.7031 66.8125 13.7031 62.6094
L13.7031 59.7188
z

M30.5938 4.6875
C25.5938 4.6875 24.9062 5.29688 24.9062 10.1875
L24.9062 61.7188
C24.9062 66.6094 25.5938 67.3125 30.5938 67.3125
L35.7969 67.3125
C52.9062 67.3125 60 58.0469 60 36
C60 13.6562 53.5 4.6875 37.4062 4.6875
z
" id="Century_Schoolbook_L_Roman-68"/>
    <path d="
M38.9062 -85.5
L21.2969 -46.5938
C20.5938 -45 20.0938 -45 19.7969 -45
C19.7031 -45 19.2031 -45 18.0938 -45.7969
L8.59375 -53
C7.29688 -54 7.29688 -54.2969 7.29688 -54.5938
C7.29688 -55.0938 7.59375 -55.7031 8.29688 -55.7031
C8.90625 -55.7031 10.5938 -54.2969 11.7031 -53.5
C12.2969 -53 13.7969 -51.9062 14.9062 -51.0938
L34.5938 -94.4062
C35.2969 -96 35.7969 -96 36.7031 -96
C38.2031 -96 38.5 -95.4062 39.2031 -94
L84.5938 0
C85.2969 1.40625 85.2969 1.79688 85.2969 2
C85.2969 3 84.5 4 83.2969 4
C82.5 4 81.7969 3.5 81 1.90625
z
" id="CMSY10-112"/>
    <path d="
M41.2969 -114.906
C41.2969 -114.5 41.0938 -114.297 40.9062 -114
C36.2969 -109.094 29.5 -101 25.2969 -84.7031
C23 -75.5938 22.0938 -65.2969 22.0938 -56
C22.0938 -29.7031 28.4062 -11.2969 40.4062 1.70312
C41.2969 2.59375 41.2969 2.79688 41.2969 3
C41.2969 4 40.5 4 40.0938 4
C38.5938 4 33.2031 -2 31.9062 -3.5
C21.7031 -15.5938 15.2031 -33.5938 15.2031 -55.9062
C15.2031 -70.0938 17.7031 -90.2031 30.7969 -107.094
C31.7969 -108.297 38.2969 -115.906 40.0938 -115.906
C40.5 -115.906 41.2969 -115.906 41.2969 -114.906" id="CMEX10-0"/>
    <path d="
M25.9062 37.6094
L37.2031 37.6094
C34.5 26.4219 32.7969 19.1406 32.7969 11.1719
C32.7969 9.78125 32.7969 -1 36.9062 -1
C39 -1 40.7969 0.890625 40.7969 2.59375
C40.7969 3.09375 40.7969 3.29688 40.0938 4.79688
C37.4062 11.6719 37.4062 20.2344 37.4062 20.9375
C37.4062 21.5312 37.4062 28.625 39.5 37.6094
L50.7031 37.6094
C52 37.6094 55.2969 37.6094 55.2969 40.7969
C55.2969 43 53.4062 43 51.5938 43
L18.7031 43
C16.4062 43 13 43 8.40625 38.1094
C5.79688 35.2031 2.59375 29.9219 2.59375 29.3281
C2.59375 28.7188 3.09375 28.5312 3.70312 28.5312
C4.40625 28.5312 4.5 28.8281 5 29.4219
C10.2031 37.6094 15.4062 37.6094 17.9062 37.6094
L23.5938 37.6094
C21.4062 30.125 18.9062 21.4375 10.7031 3.98438
C9.90625 2.39062 9.90625 2.20312 9.90625 1.59375
C9.90625 -0.5 11.7031 -1 12.5938 -1
C15.5 -1 16.2969 1.59375 17.5 5.78125
C19.0938 10.875 19.0938 11.0781 20.0938 15.0625
z
" id="CMMI12-25"/>
   </defs>
   <g transform="translate(109.67764286 34.2816672342)scale(0.16 -0.16)">
    <use transform="translate(0.0 53.5984291086)scale(0.996264009963)" xlink:href="#Century_Schoolbook_L_Roman-82"/>
    <use transform="translate(71.9299848469 53.5984291086)scale(0.996264009963)" xlink:href="#Century_Schoolbook_L_Roman-101"/>
    <use transform="translate(121.743185345 53.5984291086)scale(0.996264009963)" xlink:href="#Century_Schoolbook_L_Roman-108"/>
    <use transform="translate(153.124498341 53.5984291086)scale(0.996264009963)" xlink:href="#Century_Schoolbook_L_Roman-97"/>
    <use transform="translate(208.516175305 53.5984291086)scale(0.996264009963)" xlink:href="#Century_Schoolbook_L_Roman-116"/>
    <use transform="translate(247.269881499 53.5984291086)scale(0.996264009963)" xlink:href="#Century_Schoolbook_L_Roman-105"/>
    <use transform="translate(278.651194495 53.5984291086)scale(0.996264009963)" xlink:href="#Century_Schoolbook_L_Roman-118"/>
    <use transform="translate(332.150538386 53.5984291086)scale(0.996264009963)" xlink:href="#Century_Schoolbook_L_Roman-101"/>
    <use transform="translate(409.658908488 53.5984291086)scale(0.996264009963)" xlink:href="#Century_Schoolbook_L_Roman-68"/>
    <use transform="translate(487.167278589 53.5984291086)scale(0.996264009963)" xlink:href="#Century_Schoolbook_L_Roman-105"/>
    <use transform="translate(518.548591585 53.5984291086)scale(0.996264009963)" xlink:href="#Century_Schoolbook_L_Roman-102"/>
    <use transform="translate(551.723821315 53.5984291086)scale(0.996264009963)" xlink:href="#Century_Schoolbook_L_Roman-102"/>
    <use transform="translate(584.898853421 53.5984291086)scale(0.996264009963)" xlink:href="#Century_Schoolbook_L_Roman-101"/>
    <use transform="translate(634.712053919 53.5984291086)scale(0.996264009963)" xlink:href="#Century_Schoolbook_L_Roman-114"/>
    <use transform="translate(678.945622616 53.5984291086)scale(0.996264009963)" xlink:href="#Century_Schoolbook_L_Roman-101"/>
    <use transform="translate(728.758823114 53.5984291086)scale(0.996264009963)" xlink:href="#Century_Schoolbook_L_Roman-110"/>
    <use transform="translate(789.630453791 53.5984291086)scale(0.996264009963)" xlink:href="#Century_Schoolbook_L_Roman-99"/>
    <use transform="translate(833.864022489 53.5984291086)scale(0.996264009963)" xlink:href="#Century_Schoolbook_L_Roman-101"/>
    <use transform="translate(911.37239259 53.5984291086)scale(0.996264009963)" xlink:href="#Century_Schoolbook_L_Roman-98"/>
    <use transform="translate(966.764069554 53.5984291086)scale(0.996264009963)" xlink:href="#Century_Schoolbook_L_Roman-101"/>
    <use transform="translate(1016.57727005 53.5984291086)scale(0.996264009963)" xlink:href="#Century_Schoolbook_L_Roman-116"/>
    <use transform="translate(1055.33097625 53.5984291086)scale(0.996264009963)" xlink:href="#Century_Schoolbook_L_Roman-119"/>
    <use transform="translate(1132.83934635 53.5984291086)scale(0.996264009963)" xlink:href="#Century_Schoolbook_L_Roman-101"/>
    <use transform="translate(1182.65254685 53.5984291086)scale(0.996264009963)" xlink:href="#Century_Schoolbook_L_Roman-101"/>
    <use transform="translate(1232.46574734 53.5984291086)scale(0.996264009963)" xlink:href="#Century_Schoolbook_L_Roman-110"/>
    <use transform="translate(1364.37938115 92.8245306906)scale(0.697381766617)" xlink:href="#CMR17-49"/>
    <use transform="translate(1322.2280614 66.9487104024)scale(0.697381766617)" xlink:href="#CMSY10-112"/>
    <use transform="translate(1380.3433809 7.51630847214)scale(0.697381766617)" xlink:href="#CMMI12-110"/>
    <use transform="translate(1421.10422403 7.51630847214)scale(0.697381766617)" xlink:href="#CMR17-33"/>
    <use transform="translate(1467.40456625 53.5984291086)scale(0.996264009963)" xlink:href="#Century_Schoolbook_L_Roman-97"/>
    <use transform="translate(1522.79624321 53.5984291086)scale(0.996264009963)" xlink:href="#Century_Schoolbook_L_Roman-110"/>
    <use transform="translate(1583.66787389 53.5984291086)scale(0.996264009963)" xlink:href="#Century_Schoolbook_L_Roman-100"/>
    <use transform="translate(1668.54853078 53.5984291086)scale(0.996264009963)" xlink:href="#CMR17-40"/>
    <use transform="translate(1703.82929858 53.5984291086)scale(0.996264009963)" xlink:href="#CMR17-50"/>
    <use transform="translate(1749.51977569 53.5984291086)scale(0.996264009963)" xlink:href="#CMMI12-110"/>
    <use transform="translate(1807.74982305 53.5984291086)scale(0.996264009963)" xlink:href="#CMMI12-25"/>
    <use transform="translate(1866.6604238 53.5984291086)scale(0.996264009963)" xlink:href="#CMR17-41"/>
    <use transform="translate(1901.9411916 89.7520680505)scale(0.697381766617)" xlink:href="#CMSY10-0"/>
    <use transform="translate(1957.37769862 117.210211463)scale(0.498132004981)" xlink:href="#CMR17-49"/>
    <use transform="translate(1957.37769862 65.7035020042)scale(0.498132004981)" xlink:href="#CMR17-52"/>
    <use transform="translate(1998.52098819 134.296513198)scale(0.996264009963)" xlink:href="#CMEX10-0"/>
    <use transform="translate(2049.9351492 92.8245306906)scale(0.697381766617)" xlink:href="#CMMI12-101"/>
    <use transform="translate(2045.37885578 19.2431762239)scale(0.697381766617)" xlink:href="#CMMI12-110"/>
    <use transform="translate(2087.33521268 134.296513198)scale(0.996264009963)" xlink:href="#CMEX10-1"/>
    <use transform="translate(2134.19308027 138.81311476)scale(0.498132004981)" xlink:href="#CMMI12-110"/>
    <use transform="translate(2137.32797663 87.3064053014)scale(0.498132004981)" xlink:href="#CMR17-50"/>
    <path d="
M1322.23 76.5126
L1438.51 76.5126
L1438.51 80.4975
L1322.23 80.4975
L1322.23 76.5126
z
"/>
    <path d="
M1380.34 66.9487
L1438.51 66.9487
L1438.51 69.7382
L1380.34 69.7382
L1380.34 66.9487
z
"/>
    <path d="
M1957.38 105.792
L1980.22 105.792
L1980.22 108.581
L1957.38 108.581
L1957.38 105.792
z
"/>
    <path d="
M2045.38 76.5126
L2086.14 76.5126
L2086.14 80.4975
L2045.38 80.4975
L2045.38 76.5126
z
"/>
    <path d="
M2134.19 127.395
L2163.31 127.395
L2163.31 130.184
L2134.19 130.184
L2134.19 127.395
z
"/>
   </g>
  </g>
 </g>
 <defs>
  <clipPath id="p7ff5b81e1d">
   <rect height="345.6" width="446.4" x="72.0" y="43.2"/>
  </clipPath>
 </defs>
</svg>
