<?xml version="1.0" encoding="UTF-8" standalone="no"?>
<!-- Created with Inkscape (http://www.inkscape.org/) -->

<svg
   xmlns:dc="http://purl.org/dc/elements/1.1/"
   xmlns:cc="http://creativecommons.org/ns#"
   xmlns:rdf="http://www.w3.org/1999/02/22-rdf-syntax-ns#"
   xmlns:svg="http://www.w3.org/2000/svg"
   xmlns="http://www.w3.org/2000/svg"
   xmlns:sodipodi="http://sodipodi.sourceforge.net/DTD/sodipodi-0.dtd"
   xmlns:inkscape="http://www.inkscape.org/namespaces/inkscape"
   id="svg2"
   version="1.1"
   inkscape:version="0.92.4 5da689c313, 2019-01-14"
   width="218"
   height="198.33733"
   xml:space="preserve"
   sodipodi:docname="logoCppQED.svg"
   style="display:inline"
   inkscape:export-filename="/home/vukics/work/cppqed/doc/logoCppQED.png"
   inkscape:export-xdpi="27.448561"
   inkscape:export-ydpi="27.448561"><metadata
     id="metadata8"><rdf:RDF><cc:Work
         rdf:about=""><dc:format>image/svg+xml</dc:format><dc:type
           rdf:resource="http://purl.org/dc/dcmitype/StillImage" /><dc:title></dc:title></cc:Work></rdf:RDF></metadata><defs
     id="defs6" /><sodipodi:namedview
     pagecolor="#ffffff"
     bordercolor="#666666"
     borderopacity="1"
     objecttolerance="10"
     gridtolerance="10"
     guidetolerance="10"
     inkscape:pageopacity="0"
     inkscape:pageshadow="2"
     inkscape:window-width="1872"
     inkscape:window-height="1171"
     id="namedview4"
     showgrid="false"
     inkscape:zoom="1.2029102"
     inkscape:cx="-184.92028"
     inkscape:cy="213.2508"
     inkscape:window-x="48"
     inkscape:window-y="0"
     inkscape:window-maximized="1"
     inkscape:current-layer="layer2"
     fit-margin-top="10"
     fit-margin-left="10"
     fit-margin-right="10"
     fit-margin-bottom="10"
     inkscape:showpageshadow="false"
     showborder="false" /><g
     inkscape:groupmode="layer"
     id="layer2"
     inkscape:label="New"
     transform="translate(-129.44158,-107.10567)"><g
   style="font-style:normal;font-variant:normal;font-weight:normal;font-stretch:normal;font-size:12.3075819px;line-height:125%;font-family:'Wittenberger Fraktur MT Std';-inkscape-font-specification:Sans;letter-spacing:0px;word-spacing:0px;fill:#000000;fill-opacity:1;stroke:none"
   id="text2991"
   transform="matrix(19.354366,0,0,19.354366,-3472.3715,-2971.7414)"><path
     d="m 190.03641,161.12871 c -0.24615,-0.73845 -0.72615,-1.00922 -1.19384,-1.00922 -0.99691,0 -2.22767,1.35384 -2.22767,4.14766 0,2.52305 1.6123,4.5415 3.85228,4.5415 1.50152,0 2.65843,-0.73846 3.23689,-2.37537 l -0.19692,-0.0123 c -0.39384,0.83692 -1.31691,1.41538 -2.86767,1.41538 -2.70766,0 -3.01536,-3.12613 -3.01536,-4.51689 0,-1.26768 0.11077,-2.94151 1.30461,-2.94151 0.39384,0 0.82461,0.33231 0.92307,0.99692 -0.29539,0.46768 -0.51692,0.94768 -0.51692,1.43998 0,1.11999 1.21845,2.16614 1.21845,3.17536 0,0.38153 -0.12308,0.59076 -0.41846,0.87384 l 0.12308,0.18461 c 0.79999,-0.68922 1.15691,-1.35383 1.15691,-2.05537 0,-1.02152 -1.34153,-2.2769 -1.34153,-3.27381 0,-0.29538 0.22154,-0.56615 0.43077,-0.8123 0.52922,0.27076 0.75076,0.41846 1.27999,0.41846 0.67691,0 1.27999,-0.45539 1.75998,-1.15692 l -0.18461,-0.0985 c -0.24615,0.30769 -0.52923,0.45538 -0.86153,0.45538 -0.40615,0 -0.88615,-0.22153 -1.48922,-0.61538 l -0.9723,1.21845"
     id="path3863"
     inkscape:connector-curvature="0" /></g><g
   style="font-style:normal;font-variant:normal;font-weight:normal;font-stretch:normal;font-size:7.34556246px;line-height:125%;font-family:'Wittenberger Fraktur MT Std';-inkscape-font-specification:Sans;letter-spacing:0px;word-spacing:0px;fill:#ff0000;fill-opacity:1;stroke:none"
   id="text2995"
   transform="matrix(19.354366,0,0,19.354366,-3472.3715,-2971.7414)"><path
     d="m 191.90141,161.60317 0.20567,1.08714 -1.09449,-0.20567 -0.33055,0.29382 0.33055,0.28647 1.09449,-0.19833 -0.20567,1.55726 0.20567,1.55726 -1.09449,-0.20567 -0.33055,0.29382 0.33055,0.28648 1.09449,-0.19833 -0.20567,1.08714 0.28647,0.3379 0.29382,-0.3379 -0.20567,-1.08714 1.09449,0.19833 0.33055,-0.28648 -0.33055,-0.29382 -1.09449,0.20567 0.20567,-1.55726 -0.20567,-1.55726 1.09449,0.19833 0.33055,-0.28647 -0.33055,-0.29382 -1.09449,0.20567 0.20567,-1.08714 -0.29382,-0.3379 -0.28647,0.3379"
     id="path3860"
     inkscape:connector-curvature="0" /></g><g
   style="font-style:normal;font-variant:normal;font-weight:normal;font-stretch:normal;font-size:6.5px;line-height:125%;font-family:'Wittenberger Fraktur MT Std';-inkscape-font-specification:'Wittenberger Fraktur MT Std';text-align:start;letter-spacing:0px;word-spacing:0px;writing-mode:lr-tb;text-anchor:start;fill:#000000;fill-opacity:1;stroke:none"
   id="text2999"
   transform="matrix(19.354366,0,0,19.354366,-3472.3715,-2971.7414)"><path
     d="m 194.5538,163.98128 -0.988,0.4485 c -0.013,-0.195 -0.0195,-0.4745 -0.0195,-0.65 0,-0.4095 0.039,-0.5915 0.481,-0.7605 l 0.5265,0.962 m 0.5525,1.3585 c -0.325,0.1755 -0.5265,0.234 -0.6565,0.234 -0.3445,0 -0.8255,-0.3185 -0.8775,-1.0075 l 1.456,-0.65 -0.6435,-1.1765 c -0.962,0.403 -1.3195,0.4745 -1.3195,1.5535 0,1.1505 0.429,1.391 1.079,1.7485 0.2665,-0.221 0.689,-0.429 0.962,-0.559 v -0.143"
     id="path3857"
     inkscape:connector-curvature="0" /></g><g
   style="font-style:normal;font-variant:normal;font-weight:normal;font-stretch:normal;font-size:6.5px;line-height:125%;font-family:'Wittenberger Fraktur MT Std';-inkscape-font-specification:'Wittenberger Fraktur MT Std';text-align:start;letter-spacing:0px;word-spacing:0px;writing-mode:lr-tb;text-anchor:start;fill:#000000;fill-opacity:1;stroke:none"
   id="text3003"
   transform="matrix(19.354366,0,0,19.354366,-3472.3715,-2971.7414)"><path
     d="m 195.05765,165.78486 c 0.208,-0.065 0.455,-0.13 0.6305,-0.208 0.533,0.273 0.624,0.637 0.624,1.469 0,0.559 -0.065,1.04 -0.325,1.04 -0.1625,0 -0.455,-0.1235 -0.9295,-0.3965 v -1.9045 m -0.4615,1.781 c 0,0.182 -0.039,0.2925 -0.2795,0.3575 v 0.065 c 0.4875,0.026 0.884,0.234 1.313,0.533 0.806,-0.637 1.2155,-0.442 1.2155,-1.677 0,-0.819 -0.247,-1.157 -0.5005,-1.4105 -0.455,-0.455 -1.768,-0.6955 -1.768,-1.1375 0,-0.065 0.0559,-0.18853 0.16637,-0.26003 l -0.0429,-0.065 c -0.2925,0.182 -0.4095,0.3705 -0.4095,0.585 0,0.481 0.8645,0.7345 1.2545,0.9425 -0.312,0.1235 -0.6305,0.2015 -0.949,0.2665 v 1.8005"
     id="path3854"
     inkscape:connector-curvature="0"
     sodipodi:nodetypes="ccssccccccsssccsccc" /></g><g
   style="font-style:normal;font-variant:normal;font-weight:normal;font-stretch:normal;font-size:6.5px;line-height:125%;font-family:'Wittenberger Fraktur MT Std';-inkscape-font-specification:'Wittenberger Fraktur MT Std';text-align:start;letter-spacing:0px;word-spacing:0px;writing-mode:lr-tb;text-anchor:start;fill:#000000;fill-opacity:1;stroke:none"
   id="text3007"
   transform="matrix(19.354366,0,0,19.354366,-3472.3715,-2971.7414)"><path
     d="m 194.91451,162.20083 c -0.2665,0.1235 -0.4875,0.247 -0.715,0.247 -0.247,0 -0.5395,-0.1625 -0.5395,-1.2805 0,-0.845 0.2145,-1.1375 0.3965,-1.1375 0.104,0 0.4485,0.1885 0.858,0.3575 v 1.8135 m 0.4745,-1.599 c 0,-0.2145 0.078,-0.325 0.2925,-0.377 v -0.065 c -0.4095,-0.039 -1.053,-0.299 -1.365,-0.5655 -0.338,0.4875 -1.1635,0.5005 -1.1635,1.716 0,0.7345 0.13,1.1765 0.715,1.5535 0.2145,-0.156 0.663,-0.3705 1.04,-0.5135 0.0195,0.4745 0.0715,1.1115 0.208,1.5795 h 0.104 c 0.078,-0.26 0.169,-0.7995 0.169,-1.378 v -1.95"
     id="path3851"
     inkscape:connector-curvature="0" /></g><path
   style="fill:#8b6508;fill-opacity:1;stroke-width:41.61096954;stroke-miterlimit:4;stroke-dasharray:124.83290938, 41.61096979;stroke-dashoffset:0"
   d="m 249.71157,242.39287 c 0,1.32968 -1.03013,2.40988 -2.30165,2.40988 -1.27152,0 -2.30165,-1.07746 -2.30165,-2.40988 0,-1.32969 1.03013,-2.40989 2.30165,-2.40989 1.27152,0 2.30165,1.0802 2.30165,2.40989 z"
   id="path3784"
   inkscape:connector-curvature="0" />




<g
   id="g861"
   inkscape:export-xdpi="299.82047"
   inkscape:export-ydpi="299.82047"><text
     id="text830"
     y="222.31126"
     x="4.7439861"
     style="font-style:normal;font-variant:normal;font-weight:normal;font-stretch:normal;font-size:32px;line-height:25px;font-family:'Silentium Pro';-inkscape-font-specification:'Silentium Pro';text-align:center;letter-spacing:0px;word-spacing:0px;text-anchor:middle;fill:#000000;fill-opacity:1;stroke:none;stroke-width:1px;stroke-linecap:butt;stroke-linejoin:miter;stroke-opacity:1"
     xml:space="preserve"><tspan
       style="font-size:192px"
       y="222.31126"
       x="4.7439861"
       id="tspan828"
       sodipodi:role="line">C</tspan></text>
<text
     id="text834"
     y="145.64403"
     x="76.574028"
     style="font-style:normal;font-variant:normal;font-weight:normal;font-stretch:normal;font-size:80.41281128px;line-height:62.82250977px;font-family:'Silentium Pro';-inkscape-font-specification:'Silentium Pro';text-align:center;letter-spacing:0px;word-spacing:0px;text-anchor:middle;fill:#000000;fill-opacity:1;stroke:none;stroke-width:2.51290035px;stroke-linecap:butt;stroke-linejoin:miter;stroke-opacity:1"
     xml:space="preserve"><tspan
       style="stroke-width:2.51290035px"
       y="145.64403"
       x="76.574028"
       id="tspan832"
       sodipodi:role="line">q</tspan></text>
<text
     id="text838"
     y="185.3354"
     x="59.861874"
     style="font-style:normal;font-variant:normal;font-weight:normal;font-stretch:normal;font-size:80.41281128px;line-height:62.82250977px;font-family:'Silentium Pro';-inkscape-font-specification:'Silentium Pro';text-align:center;letter-spacing:0px;word-spacing:0px;text-anchor:middle;fill:#000000;fill-opacity:1;stroke:none;stroke-width:2.51290035px;stroke-linecap:butt;stroke-linejoin:miter;stroke-opacity:1"
     xml:space="preserve"><tspan
       style="stroke-width:2.51290035px"
       y="185.3354"
       x="59.861874"
       id="tspan836"
       sodipodi:role="line">e</tspan></text>
<text
     id="text842"
     y="223.98221"
     x="73.440514"
     style="font-style:normal;font-variant:normal;font-weight:normal;font-stretch:normal;font-size:80.41281128px;line-height:62.82250977px;font-family:'Silentium Pro';-inkscape-font-specification:'Silentium Pro';text-align:center;letter-spacing:0px;word-spacing:0px;text-anchor:middle;fill:#000000;fill-opacity:1;stroke:none;stroke-width:2.51290035px;stroke-linecap:butt;stroke-linejoin:miter;stroke-opacity:1"
     xml:space="preserve"><tspan
       style="stroke-width:2.51290035px"
       y="223.98221"
       x="73.440514"
       id="tspan840"
       sodipodi:role="line">d</tspan></text>
<text
     id="text846"
     y="209.6246"
     x="19.640179"
     style="font-style:normal;font-variant:normal;font-weight:normal;font-stretch:normal;font-size:154.02906799px;line-height:120.33521271px;font-family:'Silentium Pro';-inkscape-font-specification:'Silentium Pro';text-align:center;letter-spacing:0px;word-spacing:0px;text-anchor:middle;fill:#ff0000;fill-opacity:1;stroke:none;stroke-width:4.81340837px;stroke-linecap:butt;stroke-linejoin:miter;stroke-opacity:1;"
     xml:space="preserve"><tspan
       style="stroke-width:4.81340837px;fill:#ff0000;"
       y="209.6246"
       x="19.640179"
       id="tspan844"
       sodipodi:role="line">‡</tspan></text>
<path
     inkscape:connector-curvature="0"
     id="path3014"
     d="m 23.219818,183.98529 c 0,2.84641 -2.205219,5.15886 -4.927188,5.15886 -2.721968,0 -4.927187,-2.30658 -4.927187,-5.15886 0,-2.84654 2.205219,-5.15889 4.927187,-5.15889 2.721969,0 4.927188,2.31235 4.927188,5.15889 z"
     style="fill:#8b6508;fill-opacity:1;stroke-width:89.07741547;stroke-miterlimit:4;stroke-dasharray:267.23224368, 89.07741455;stroke-dashoffset:0" /><path
     style="fill:#8b6508;fill-opacity:1;stroke-width:102.47544098;stroke-miterlimit:4;stroke-dasharray:307.42622469, 102.47540823;stroke-dashoffset:0"
     d="m 26.861422,156.53961 c 0,3.19999 -2.595855,5.79998 -5.800001,5.79998 -3.204144,0 -5.799999,-2.59327 -5.799999,-5.79998 0,-3.20042 2.595855,-5.80002 5.799999,-5.80002 3.204146,0 5.800001,2.5996 5.800001,5.80002 z"
     id="path847"
     inkscape:connector-curvature="0" /></g></g></svg>