<?xml version="1.0" encoding="UTF-8" standalone="no"?>
<!-- Created with Inkscape (http://www.inkscape.org/) -->

<svg
   xmlns:dc="http://purl.org/dc/elements/1.1/"
   xmlns:cc="http://creativecommons.org/ns#"
   xmlns:rdf="http://www.w3.org/1999/02/22-rdf-syntax-ns#"
   xmlns:svg="http://www.w3.org/2000/svg"
   xmlns="http://www.w3.org/2000/svg"
   xmlns:sodipodi="http://sodipodi.sourceforge.net/DTD/sodipodi-0.dtd"
   xmlns:inkscape="http://www.inkscape.org/namespaces/inkscape"
   id="svg2"
   version="1.1"
   inkscape:version="0.48.1 r9760"
   width="200"
   height="180.33733"
   xml:space="preserve"
   sodipodi:docname="logo.svg"
   style="display:inline"><metadata
     id="metadata8"><rdf:RDF><cc:Work
         rdf:about=""><dc:format>image/svg+xml</dc:format><dc:type
           rdf:resource="http://purl.org/dc/dcmitype/StillImage" /><dc:title /></cc:Work></rdf:RDF></metadata><defs
     id="defs6" /><sodipodi:namedview
     pagecolor="#ffffff"
     bordercolor="#666666"
     borderopacity="1"
     objecttolerance="10"
     gridtolerance="10"
     guidetolerance="10"
     inkscape:pageopacity="0"
     inkscape:pageshadow="2"
     inkscape:window-width="1777"
     inkscape:window-height="1060"
     id="namedview4"
     showgrid="false"
     inkscape:zoom="1"
     inkscape:cx="-209.82218"
     inkscape:cy="-37.422145"
     inkscape:window-x="105"
     inkscape:window-y="-3"
     inkscape:window-maximized="1"
     inkscape:current-layer="layer2"
     fit-margin-top="1"
     fit-margin-left="1"
     fit-margin-right="1"
     fit-margin-bottom="1"
     inkscape:showpageshadow="false"
     showborder="true" /><g
     inkscape:groupmode="layer"
     id="layer2"
     inkscape:label="New"
     transform="translate(-138.44158,-116.10567)"><g
       id="g2994"
       transform="matrix(19.354366,0,0,19.354366,-3472.3715,-2971.7414)"><g
         id="text2991"
         style="font-size:12.3075819px;font-style:normal;font-variant:normal;font-weight:normal;font-stretch:normal;line-height:125%;letter-spacing:0px;word-spacing:0px;fill:#000000;fill-opacity:1;stroke:none;font-family:Wittenberger Fraktur MT Std;-inkscape-font-specification:Sans"><path
           inkscape:connector-curvature="0"
           id="path3863"
           d="m 190.03641,161.12871 c -0.24615,-0.73845 -0.72615,-1.00922 -1.19384,-1.00922 -0.99691,0 -2.22767,1.35384 -2.22767,4.14766 0,2.52305 1.6123,4.5415 3.85228,4.5415 1.50152,0 2.65843,-0.73846 3.23689,-2.37537 l -0.19692,-0.0123 c -0.39384,0.83692 -1.31691,1.41538 -2.86767,1.41538 -2.70766,0 -3.01536,-3.12613 -3.01536,-4.51689 0,-1.26768 0.11077,-2.94151 1.30461,-2.94151 0.39384,0 0.82461,0.33231 0.92307,0.99692 -0.29539,0.46768 -0.51692,0.94768 -0.51692,1.43998 0,1.11999 1.21845,2.16614 1.21845,3.17536 0,0.38153 -0.12308,0.59076 -0.41846,0.87384 l 0.12308,0.18461 c 0.79999,-0.68922 1.15691,-1.35383 1.15691,-2.05537 0,-1.02152 -1.34153,-2.2769 -1.34153,-3.27381 0,-0.29538 0.22154,-0.56615 0.43077,-0.8123 0.52922,0.27076 0.75076,0.41846 1.27999,0.41846 0.67691,0 1.27999,-0.45539 1.75998,-1.15692 l -0.18461,-0.0985 c -0.24615,0.30769 -0.52923,0.45538 -0.86153,0.45538 -0.40615,0 -0.88615,-0.22153 -1.48922,-0.61538 l -0.9723,1.21845" /></g><g
         id="text2995"
         style="font-size:7.34556246px;font-style:normal;font-variant:normal;font-weight:normal;font-stretch:normal;line-height:125%;letter-spacing:0px;word-spacing:0px;fill:#ff0000;fill-opacity:1;stroke:none;font-family:Wittenberger Fraktur MT Std;-inkscape-font-specification:Sans"><path
           inkscape:connector-curvature="0"
           id="path3860"
           d="m 191.90141,161.60317 0.20567,1.08714 -1.09449,-0.20567 -0.33055,0.29382 0.33055,0.28647 1.09449,-0.19833 -0.20567,1.55726 0.20567,1.55726 -1.09449,-0.20567 -0.33055,0.29382 0.33055,0.28648 1.09449,-0.19833 -0.20567,1.08714 0.28647,0.3379 0.29382,-0.3379 -0.20567,-1.08714 1.09449,0.19833 0.33055,-0.28648 -0.33055,-0.29382 -1.09449,0.20567 0.20567,-1.55726 -0.20567,-1.55726 1.09449,0.19833 0.33055,-0.28647 -0.33055,-0.29382 -1.09449,0.20567 0.20567,-1.08714 -0.29382,-0.3379 -0.28647,0.3379" /></g><g
         id="text2999"
         style="font-size:6.5px;font-style:normal;font-variant:normal;font-weight:normal;font-stretch:normal;text-align:start;line-height:125%;letter-spacing:0px;word-spacing:0px;writing-mode:lr-tb;text-anchor:start;fill:#000000;fill-opacity:1;stroke:none;font-family:Wittenberger Fraktur MT Std;-inkscape-font-specification:Wittenberger Fraktur MT Std"><path
           inkscape:connector-curvature="0"
           id="path3857"
           d="m 194.5538,163.98128 -0.988,0.4485 c -0.013,-0.195 -0.0195,-0.4745 -0.0195,-0.65 0,-0.4095 0.039,-0.5915 0.481,-0.7605 l 0.5265,0.962 m 0.5525,1.3585 c -0.325,0.1755 -0.5265,0.234 -0.6565,0.234 -0.3445,0 -0.8255,-0.3185 -0.8775,-1.0075 l 1.456,-0.65 -0.6435,-1.1765 c -0.962,0.403 -1.3195,0.4745 -1.3195,1.5535 0,1.1505 0.429,1.391 1.079,1.7485 0.2665,-0.221 0.689,-0.429 0.962,-0.559 l 0,-0.143" /></g><g
         id="text3003"
         style="font-size:6.5px;font-style:normal;font-variant:normal;font-weight:normal;font-stretch:normal;text-align:start;line-height:125%;letter-spacing:0px;word-spacing:0px;writing-mode:lr-tb;text-anchor:start;fill:#000000;fill-opacity:1;stroke:none;font-family:Wittenberger Fraktur MT Std;-inkscape-font-specification:Wittenberger Fraktur MT Std"><path
           sodipodi:nodetypes="ccssccccccsssccsccc"
           inkscape:connector-curvature="0"
           id="path3854"
           d="m 195.05765,165.78486 c 0.208,-0.065 0.455,-0.13 0.6305,-0.208 0.533,0.273 0.624,0.637 0.624,1.469 0,0.559 -0.065,1.04 -0.325,1.04 -0.1625,0 -0.455,-0.1235 -0.9295,-0.3965 l 0,-1.9045 m -0.4615,1.781 c 0,0.182 -0.039,0.2925 -0.2795,0.3575 l 0,0.065 c 0.4875,0.026 0.884,0.234 1.313,0.533 0.806,-0.637 1.2155,-0.442 1.2155,-1.677 0,-0.819 -0.247,-1.157 -0.5005,-1.4105 -0.455,-0.455 -1.768,-0.6955 -1.768,-1.1375 0,-0.065 0.0559,-0.18853 0.16637,-0.26003 l -0.0429,-0.065 c -0.2925,0.182 -0.4095,0.3705 -0.4095,0.585 0,0.481 0.8645,0.7345 1.2545,0.9425 -0.312,0.1235 -0.6305,0.2015 -0.949,0.2665 l 0,1.8005" /></g><g
         id="text3007"
         style="font-size:6.5px;font-style:normal;font-variant:normal;font-weight:normal;font-stretch:normal;text-align:start;line-height:125%;letter-spacing:0px;word-spacing:0px;writing-mode:lr-tb;text-anchor:start;fill:#000000;fill-opacity:1;stroke:none;font-family:Wittenberger Fraktur MT Std;-inkscape-font-specification:Wittenberger Fraktur MT Std"><path
           inkscape:connector-curvature="0"
           id="path3851"
           d="m 194.91451,162.20083 c -0.2665,0.1235 -0.4875,0.247 -0.715,0.247 -0.247,0 -0.5395,-0.1625 -0.5395,-1.2805 0,-0.845 0.2145,-1.1375 0.3965,-1.1375 0.104,0 0.4485,0.1885 0.858,0.3575 l 0,1.8135 m 0.4745,-1.599 c 0,-0.2145 0.078,-0.325 0.2925,-0.377 l 0,-0.065 c -0.4095,-0.039 -1.053,-0.299 -1.365,-0.5655 -0.338,0.4875 -1.1635,0.5005 -1.1635,1.716 0,0.7345 0.13,1.1765 0.715,1.5535 0.2145,-0.156 0.663,-0.3705 1.04,-0.5135 0.0195,0.4745 0.0715,1.1115 0.208,1.5795 l 0.104,0 c 0.078,-0.26 0.169,-0.7995 0.169,-1.378 l 0,-1.95" /></g><path
         inkscape:connector-curvature="0"
         id="path3014"
         d="m 192.27344,162.77466 c 0,0.0485 -0.0367,0.0879 -0.082,0.0879 -0.0453,0 -0.082,-0.0393 -0.082,-0.0879 0,-0.0485 0.0367,-0.0879 0.082,-0.0879 0.0453,0 0.082,0.0394 0.082,0.0879 z"
         style="fill:#8b6508;fill-opacity:1;stroke-width:1.5;stroke-miterlimit:4;stroke-dasharray:4.5, 1.5;stroke-dashoffset:0"
         transform="matrix(1.4502645,0,0,1.4165374,-86.535025,-67.797839)" /><path
         inkscape:connector-curvature="0"
         id="path3784"
         d="m 192.27344,162.77466 c 0,0.0485 -0.0367,0.0879 -0.082,0.0879 -0.0453,0 -0.082,-0.0393 -0.082,-0.0879 0,-0.0485 0.0367,-0.0879 0.082,-0.0879 0.0453,0 0.082,0.0394 0.082,0.0879 z"
         style="fill:#8b6508;fill-opacity:1;stroke-width:1.5;stroke-miterlimit:4;stroke-dasharray:4.5, 1.5;stroke-dashoffset:0"
         transform="matrix(1.4502645,0,0,1.4165374,-86.535025,-64.508731)" /></g></g></svg>